<svg width="192" height="50" viewBox="0 0 192 50" fill="none" xmlns="http://www.w3.org/2000/svg">
<g id="Neuland logo">
<path id="Vector" d="M41.9964 0L28.0442 24.1662L20.8942 11.7812C20.5033 11.1046 19.7824 10.6886 19.0006 10.6886C18.2188 10.6886 17.4979 11.1058 17.107 11.7812L0 41.4118H5.04842L19.0006 17.2457L25.5194 28.538L20.5463 37.1512C19.8027 38.4435 19.4094 39.9163 19.4094 41.4118C19.4094 46.147 23.2827 50 28.043 50C32.8033 50 36.6766 46.147 36.6766 41.4118C36.6766 39.9163 36.2833 38.4423 35.5386 37.1476L30.5678 28.538L47.0448 0H41.9964ZM31.7513 39.3305C32.1136 39.9606 32.3048 40.6802 32.3048 41.4106C32.3048 43.7346 30.3933 45.6258 28.0442 45.6258C25.6952 45.6258 23.7836 43.7346 23.7836 41.4106C23.7836 40.679 23.9749 39.9594 24.3359 39.3329L28.0442 32.9085L31.7513 39.3305Z" fill="#00D264"/>
<path id="Vector_2" d="M72.4754 25.3473C73.0659 26.6085 73.3624 28.1793 73.3624 30.0586V41.4119H68.7671V30.5224C68.7671 28.8488 68.406 27.5744 67.6864 26.6994C66.9643 25.8243 65.8968 25.3868 64.4814 25.3868C63.5549 25.3868 62.73 25.6127 62.0103 26.0622C61.2895 26.5129 60.7169 27.1501 60.2913 27.9737C59.8669 28.7986 59.6541 29.8147 59.6541 31.0245V41.413H55.0205V21.9498H59.1138L59.4234 25.1943C60.0151 24.061 60.8639 23.1608 61.9721 22.4902C63.0791 21.8207 64.3917 21.486 65.9111 21.486C67.4808 21.486 68.8197 21.8147 69.9267 22.471C71.0325 23.1273 71.8824 24.0861 72.4754 25.3473ZM93.8836 26.1578C94.669 27.5744 95.0612 29.1835 95.0612 30.9851C95.0612 31.2433 95.0612 31.5206 95.0612 31.8159C95.0612 32.1124 95.036 32.4399 94.9834 32.801H80.4407C80.5017 33.7705 80.6834 34.6444 81.0624 35.3688C81.5118 36.2319 82.1239 36.8942 82.8962 37.3581C83.6684 37.8207 84.5567 38.0526 85.5609 38.0526C86.6427 38.0526 87.5369 37.8207 88.2458 37.3581C88.9536 36.8942 89.4628 36.2893 89.7713 35.5422H94.4826C94.1729 36.7269 93.6003 37.8016 92.7635 38.7675C91.9267 39.7334 90.9034 40.4925 89.6935 41.046C88.4837 41.5995 87.1185 41.8757 85.5991 41.8757C83.6684 41.8757 81.9697 41.4513 80.5017 40.6013C79.0349 39.7526 77.8884 38.5679 77.0647 37.0484C76.2399 35.5302 75.8286 33.7801 75.8286 31.7968C75.8286 29.7633 76.2351 27.9737 77.0456 26.4292C77.8573 24.8835 79.0026 23.6749 80.4826 22.7998C81.9625 21.9247 83.6816 21.4848 85.6386 21.4848C87.5429 21.4848 89.1974 21.9104 90.6009 22.7603C92.0044 23.6091 93.097 24.7424 93.8836 26.1578ZM90.3881 29.8267C90.3367 28.4364 89.8597 27.3294 88.9595 26.5057C88.0582 25.682 86.938 25.2696 85.5991 25.2696C84.6463 25.2696 83.7713 25.4884 82.9739 25.9259C82.1753 26.3646 81.5453 27.0138 81.0827 27.8769C80.7886 28.4256 80.6212 29.0975 80.5148 29.8267H90.3881ZM111.16 32.3766C111.16 33.5864 110.948 34.5966 110.523 35.4071C110.099 36.2188 109.52 36.8488 108.786 37.2995C108.052 37.7502 107.234 37.9749 106.334 37.9749C104.893 37.9749 103.817 37.5446 103.109 36.6814C102.401 35.8195 102.047 34.5511 102.047 32.8775V21.9486H97.4138V33.3784C97.4138 35.2325 97.7091 36.7962 98.3008 38.0706C98.8926 39.3449 99.7497 40.2977 100.869 40.9289C101.989 41.5589 103.321 41.8745 104.866 41.8745C106.385 41.8745 107.704 41.5398 108.824 40.8715C109.945 40.2021 110.787 39.3007 111.354 38.1674L111.702 41.4119H115.796V21.9498H111.163V32.3766H111.16ZM119.15 41.4119H123.783V13.6079H119.15V41.4119ZM142.393 21.9498H146.679V41.413H142.353L142.082 38.6324C141.465 39.4812 140.628 40.2343 139.572 40.8918C138.516 41.5481 137.164 41.8757 135.517 41.8757C133.714 41.8757 132.118 41.4382 130.728 40.5631C129.337 39.6892 128.243 38.4782 127.445 36.9337C126.646 35.3891 126.248 33.6521 126.248 31.7203C126.248 29.7119 126.648 27.9426 127.445 26.4113C128.243 24.8787 129.349 23.6761 130.766 22.801C132.181 21.9259 133.79 21.4872 135.593 21.4872C137.06 21.4872 138.34 21.7645 139.435 22.318C140.529 22.8727 141.398 23.6629 142.041 24.6934L142.393 21.9498ZM142.083 31.6808C142.083 30.471 141.857 29.4023 141.408 28.4758C140.957 27.5493 140.313 26.8213 139.477 26.2941C138.64 25.7669 137.655 25.5027 136.523 25.5027C135.468 25.5027 134.515 25.7609 133.665 26.275C132.816 26.7902 132.159 27.5183 131.696 28.4567C131.232 29.3963 131 30.471 131 31.682C131 32.9181 131.232 33.9928 131.696 34.9074C132.159 35.8207 132.816 36.5416 133.665 37.0688C134.515 37.5972 135.468 37.8601 136.523 37.8601C137.655 37.8601 138.64 37.596 139.477 37.0688C140.314 36.5416 140.957 35.8135 141.408 34.887C141.859 33.9594 142.083 32.8906 142.083 31.6808ZM164.94 22.4698C163.833 21.8135 162.495 21.4848 160.925 21.4848C159.405 21.4848 158.092 21.8195 156.986 22.489C155.878 23.1584 155.029 24.0598 154.436 25.1931L154.128 21.9486H150.034V41.4119H154.668V31.0233C154.668 29.8135 154.881 28.7974 155.305 27.9725C155.731 27.1489 156.302 26.5117 157.024 26.061C157.744 25.6115 158.569 25.3856 159.495 25.3856C160.911 25.3856 161.979 25.8231 162.7 26.6982C163.421 27.5732 163.782 28.8476 163.782 30.5212V41.4107H168.377V30.0574C168.377 28.1781 168.081 26.6073 167.489 25.3461C166.896 24.0861 166.046 23.1273 164.94 22.4698ZM191.273 13.6079V41.4119H187.14L186.677 38.5547C186.265 39.1716 185.764 39.7263 185.171 40.2152C184.578 40.7041 183.865 41.1034 183.028 41.4119C182.191 41.7203 181.219 41.8745 180.112 41.8745C178.309 41.8745 176.706 41.431 175.304 40.5428C173.899 39.6557 172.807 38.4447 172.021 36.9133C171.236 35.382 170.844 33.6378 170.844 31.6808C170.844 29.6988 171.243 27.9414 172.04 26.4101C172.839 24.8775 173.952 23.6749 175.38 22.7998C176.809 21.9247 178.424 21.486 180.227 21.486C181.667 21.486 182.936 21.7633 184.031 22.3168C185.125 22.8715 185.994 23.6486 186.637 24.6527V13.6079H191.273ZM186.677 31.6808C186.677 30.471 186.451 29.4023 186.002 28.4758C185.551 27.5493 184.907 26.8213 184.071 26.2941C183.234 25.7669 182.249 25.5027 181.116 25.5027C180.061 25.5027 179.109 25.7609 178.259 26.275C177.409 26.7902 176.753 27.5183 176.289 28.4567C175.826 29.3963 175.594 30.471 175.594 31.682C175.594 32.9181 175.826 33.9928 176.289 34.9074C176.753 35.8207 177.409 36.5416 178.259 37.0688C179.109 37.5972 180.061 37.8601 181.116 37.8601C182.249 37.8601 183.234 37.596 184.071 37.0688C184.908 36.5416 185.551 35.8135 186.002 34.887C186.451 33.9594 186.677 32.8906 186.677 31.6808Z" fill="#004632"/>
</g>
</svg>
