<svg xmlns="http://www.w3.org/2000/svg" xmlns:xlink="http://www.w3.org/1999/xlink" width="188.507" height="68.609" viewBox="0 0 188.507 68.609">
  <defs>
    <clipPath id="clip-path">
      <rect id="Rectangle_3218" data-name="Rectangle 3218" width="188.507" height="68.609" fill="none"/>
    </clipPath>
  </defs>
  <g id="Group_3018" data-name="Group 3018" transform="translate(0 0)">
    <g id="Group_3017" data-name="Group 3017" transform="translate(0 0)" clip-path="url(#clip-path)">
      <path id="Path_4255" data-name="Path 4255" d="M13.587,41.028c-.045.532.1,1.054.1,1.589a2.006,2.006,0,0,0,.177.81c.071.155,0,.3.09.453a.791.791,0,0,1,.129.433c0,.069.075.142.069.21-.007.127.17.241.022.372.226.094.178.327.252.5s.144.346.221.517.151.372.246.547q.2.366.427.715c.229.353.467.7.708,1.044.2.285.4.568.613.841.286.369.594.719.877,1.093a3.99,3.99,0,0,0,1.108,1.018c.285.174.535.4.809.6.425.3.786.675,1.233.943a4.5,4.5,0,0,1,.493.377,5.345,5.345,0,0,0,.489.395,1.093,1.093,0,0,0,.4.113c.106.016.219-.011.324.005.23.037.34-.163.511-.241.031-.015.046-.09.05-.138a.762.762,0,0,0-.24-.711,2.985,2.985,0,0,0-.591-.524,3.648,3.648,0,0,1-.644-.5c-.255-.249-.6-.334-.866-.564-.079-.068-.172-.12-.245-.192-.511-.5-1.036-.992-1.518-1.522a6.836,6.836,0,0,1-1.291-1.775c-.21-.472-.538-.879-.727-1.361a9.671,9.671,0,0,1-.629-1.728A1.964,1.964,0,0,0,16,43.808c-.1-.184,0-.385-.132-.558-.076-.094-.02-.263-.076-.41a2.457,2.457,0,0,1-.094-.772c-.011-.553-.015-1.108,0-1.661a6.492,6.492,0,0,1,.087-1.141c.112-.543.246-1.084.38-1.621a17.174,17.174,0,0,1,.645-1.925c.129-.343.319-.652.449-.991a4.493,4.493,0,0,1,.314-.64,5.853,5.853,0,0,1,.4-.6c.231-.312.475-.618.72-.919.185-.225.374-.445.575-.653a13.413,13.413,0,0,1,1.352-1.133c.265-.21.553-.391.81-.613a2.9,2.9,0,0,1,.844-.407c.048-.019.114,0,.148-.03a3.245,3.245,0,0,1,.784-.368c.274-.123.557-.226.836-.334.151-.059.312-.1.459-.165.364-.155.756-.2,1.125-.325.106-.035.2-.136.3-.152.27-.045.545-.06.818-.087l.08-.082H27.4l.082-.08c.174,0,.385.06.517-.015.189-.106.364-.044.542-.063a2.538,2.538,0,0,0,.521-.014,3.314,3.314,0,0,1,1.021-.068,4.742,4.742,0,0,1,1.05.01,7.49,7.49,0,0,0,1.142.068c.01.022.018.045.027.067l.054-.067a2.691,2.691,0,0,0,.325.078,2.259,2.259,0,0,0,.319,0,.441.441,0,0,1,.325.08c.08.072.159.029.253.014a1.229,1.229,0,0,1,.4.069H34.3c.027.027.054.053.08.08a4.006,4.006,0,0,1,.931.014,7.1,7.1,0,0,0,1.389.064c.287.016.562-.133.858-.078.272-.206.633-.158.931-.355a.827.827,0,0,1-.1.678,7.267,7.267,0,0,0-.329.713,1.311,1.311,0,0,1-.347.545c-.1.1-.189.187-.161.34.016.09-.049.09-.116.116a.22.22,0,0,0-.112.184c.042.245-.293.227-.3.444,0,.042-.214-.053-.218.138,0,.054-.182.034-.158.167-.393.059-.607.448-1,.527-.189.038-.321.242-.532.275a5.717,5.717,0,0,1-1.383.283l-.08.082H33l-.079.08h-.813l-.082-.08a2.635,2.635,0,0,1-.648-.01,6.023,6.023,0,0,0-1.39-.069c-.472-.012-.949-.012-1.423,0a3.253,3.253,0,0,0-.792.142c-.184.053-.38.046-.57.082-.414.076-.83.162-1.231.278a6.2,6.2,0,0,0-1.089.505,9.083,9.083,0,0,0-.848.5c-.139.091-.274.248-.489.2-.057-.014-.138.056-.2.1a1.834,1.834,0,0,0-.417.349c-.106.151-.267.226-.378.361a2.13,2.13,0,0,1-.361.414,2.649,2.649,0,0,0-.607.8.624.624,0,0,0-.127.355.406.406,0,0,1-.082.246,5.347,5.347,0,0,0-.653,1.352c-.118.289-.222.587-.359.863a1.8,1.8,0,0,0-.1.5c-.049.223-.084.449-.154.668.146.223-.071.427-.034.653a7.086,7.086,0,0,0,.02.726,8.041,8.041,0,0,1,.075.982,5.361,5.361,0,0,0,.248.991,10.433,10.433,0,0,0,.519,1.163c.079.155.124.353.329.432.039.016.031.143.063.211.05.114.113.223.17.335.231-.064.025.306.246.249.063.108.087.253.255.252a1.3,1.3,0,0,0,.572.568.982.982,0,0,0,.671.236.19.19,0,0,1,.212.08.2.2,0,0,0,.208.083c.067,0,.165-.027.2.007.226.229.535.158.8.237a8.086,8.086,0,0,0,2.246.161l.082-.082c.263.01.5-.121.753-.132.483-.02.877-.334,1.355-.364a.558.558,0,0,0,.32-.189c.334-.357.775-.6,1.1-.948a10.043,10.043,0,0,0,1.2-1.557c.383-.622.709-1.27,1.033-1.92a6.37,6.37,0,0,0,.415-1.2,2.582,2.582,0,0,0,.159-.742c.12-.008.069-.1.08-.163a10.408,10.408,0,0,1,.091-1.054,5.254,5.254,0,0,1,.278-.813,5.178,5.178,0,0,1,.233-.629c.093-.181,0-.407.2-.572a1.164,1.164,0,0,0,.25-.494c.057-.151.2-.271.17-.455.255-.127.3-.41.447-.617a6.973,6.973,0,0,1,1.125-1.266,4.511,4.511,0,0,1,.852-.577,3.5,3.5,0,0,0,.437-.309,2.054,2.054,0,0,1,.954-.43c.192,0,.191,0,.257.215.005.015.045.019.067.029a1.517,1.517,0,0,1-.039.47,1.382,1.382,0,0,0-.038.468,2.1,2.1,0,0,1-.011.483,3.5,3.5,0,0,0-.075.942,3.349,3.349,0,0,1-.082.413c-.03.138.071.3-.068.418-.014.012-.01.049-.011.075-.029.3-.039.6-.084.9-.069.455-.161.907-.241,1.359,0,.012,0,.031-.008.037-.123.08-.059.214-.091.3a1.827,1.827,0,0,0-.067.338c-.059.312-.146.618-.192.931-.053.354-.162.694-.226,1.047-.059.328-.067.662-.133.991s-.214.619-.282.941a9.218,9.218,0,0,1-.3.928.432.432,0,0,1-.068.172.311.311,0,0,0-.1.248,2.248,2.248,0,0,1-.271.86,1.1,1.1,0,0,0-.129.389.88.88,0,0,1-.248.629,1.965,1.965,0,0,1-.245.709,5.883,5.883,0,0,1-.474,1.141,1.7,1.7,0,0,0-.157.5c-.108.349-.279.67-.395,1.013a9.046,9.046,0,0,1-.523,1.161c-.123.246-.29.468-.391.731a11.361,11.361,0,0,0-.46,1.269,8.241,8.241,0,0,1-.649,1.472,10.013,10.013,0,0,1-.58.976,3.051,3.051,0,0,0-.169.255,9.4,9.4,0,0,1-.743,1.315,2.741,2.741,0,0,0-.251.543c-.052.128-.2.191-.233.3a1.215,1.215,0,0,1-.172.377,3.373,3.373,0,0,0-.206.361c-.068.12-.132.244-.206.361s-.212.223-.229.347c-.019.14-.161.063-.18.166a2.523,2.523,0,0,1-.2.4,3.643,3.643,0,0,1-.546,1.024c-.278.329-.472.7-.713,1.048-.261.074-.271.343-.4.515a4.612,4.612,0,0,0-.4.564c-.054.1-.083.178-.206.2-.045.005-.113.071-.112.108.011.261-.218.35-.351.5-.407.47-.829.926-1.229,1.4-.131.154-.208.346-.34.509A7.7,7.7,0,0,1,23.985,67.1c-.233.184-.46.374-.709.543a3.11,3.11,0,0,1-1.935.625c-.133-.007-.27,0-.4,0-.135-.143-.313-.253-.321-.479,0-.022-.048-.052-.042-.06.136-.231.012-.505.106-.727a1.62,1.62,0,0,0,.054-.383c.023-.11.063-.219.078-.331s-.007-.218.007-.324a2.24,2.24,0,0,1,.076-.291V65.6c0-.365,0-.73,0-1.095a1.246,1.246,0,0,0-.071-.538c-.071-.159.061-.372-.09-.53a2.42,2.42,0,0,0-.166-.905,7.525,7.525,0,0,0-.279-.9c-.157-.381-.364-.741-.527-1.119a4.284,4.284,0,0,0-.649-.948c-.346-.43-.692-.862-1.078-1.261-.123-.127-.231-.282-.353-.418s-.219-.294-.347-.421c-.189-.184-.4-.34-.594-.521s-.408-.278-.591-.436a11.545,11.545,0,0,0-1.22-.879,3.2,3.2,0,0,0-.3-.167,2.852,2.852,0,0,1-.862-.655,3.48,3.48,0,0,0-.822-.75c-.025-.012-.038-.038-.06-.056-.822-.715-1.577-1.5-2.347-2.265-.054-.053-.079-.133-.131-.188a2.158,2.158,0,0,0-.31-.3,1.4,1.4,0,0,1-.531-.561,5.875,5.875,0,0,0-.606-.924c-.259-.381-.53-.756-.8-1.127a10.806,10.806,0,0,1-.58-.938c-.207-.35-.449-.675-.655-1.024a5.963,5.963,0,0,1-.577-1.18.868.868,0,0,0-.084-.208,8.689,8.689,0,0,1-.625-1.525,1.475,1.475,0,0,1-.023-.314,2.2,2.2,0,0,0-.08-.291c-.022-.072-.05-.142-.072-.212-.1-.323-.218-.641-.31-.965s-.15-.663-.255-.99c-.049-.151-.039-.325-.086-.491-.06-.208-.01-.466-.112-.641-.116-.2,0-.4-.125-.6-.093-.146-.02-.37-.08-.569a3.374,3.374,0,0,1-.091-.894,7.5,7.5,0,0,1-.093-.859,2.893,2.893,0,0,0-.008-.888,4.414,4.414,0,0,1-.067-.821c-.012-.316.114-.617.087-.939a3.448,3.448,0,0,1,.008-.969c.06-.3.018-.609.079-.9.053-.249.025-.5.08-.737s.022-.5.08-.737a10.14,10.14,0,0,1,.3-1.375A3.6,3.6,0,0,0,4.961,29c.117-.545.272-1.08.4-1.62a8.573,8.573,0,0,0,.2-.978,5.16,5.16,0,0,1,.332-1.318c.317-.8.583-1.621.933-2.411a10.822,10.822,0,0,1,.44-1.032c.17-.294.325-.595.474-.9.274-.562.512-1.144.821-1.685.554-.971.99-2,1.54-2.971.293-.515.595-1.025.877-1.545.257-.478.55-.933.826-1.4a1.59,1.59,0,0,1,.26-.376,5.324,5.324,0,0,0,.591-.856,9.8,9.8,0,0,0,.5-.884,3.96,3.96,0,0,0,.523-1.244.814.814,0,0,1,.2-.362c.256-.276.362-.652.645-.918a.669.669,0,0,0,.211-.513c.214-.044.187-.276.309-.393.078-.075-.084-.236.1-.3.144-.048.059-.227.154-.323a.984.984,0,0,0,.165-.294q.372-.86.732-1.724A9.57,9.57,0,0,0,16.631,3.8a10.587,10.587,0,0,0,.3-1.178,3.176,3.176,0,0,1,.221-.957.09.09,0,0,0,.007-.038L17.244.568c.026-.02.075-.041.078-.063.007-.133.007-.268,0-.4s.093-.1.163-.1A8.71,8.71,0,0,1,18.6,1.888a5.365,5.365,0,0,1,.27.779c.083.263.166.527.234.791s.029.577.1.852a6.422,6.422,0,0,1,.067,1.506,4.3,4.3,0,0,1-.074.655c-.026.218.064.451-.083.653.052.4-.212.75-.161,1.146l-.083.082c0,.041.015.087,0,.12-.083.187-.216.355-.17.579-.263.011-.09.257-.192.362a.287.287,0,0,0-.041.182.352.352,0,0,1-.1.286.829.829,0,0,0-.143.3c-.035.094-.053.195-.083.29s.083.237-.118.23c-.015.1-.023.2-.048.3-.01.038-.052.071-.082.1s-.053.015-.067.033c-.093.11.139.338-.139.381-.038.132-.071.267-.117.4-.035.1-.1.174-.083.291a.928.928,0,0,1-.26.66,1.44,1.44,0,0,0-.219.314c-.151.442-.427.821-.617,1.244a2.061,2.061,0,0,1-.4.727.187.187,0,0,0-.048.061c-.034.087.065.2-.076.275-.08.041-.129.14-.187.218s-.147.158-.135.222c.048.271-.184.415-.26.628a1.871,1.871,0,0,1-.331.591,12.18,12.18,0,0,0-1.163,1.911c-.195.332-.268.726-.449,1.07s-.4.693-.581,1.055a5.584,5.584,0,0,1-.421.595c-.093.139-.17.28-.251.425C11.5,23.3,10.936,24.4,10.4,25.519c-.1.215-.268.4-.366.618a7.152,7.152,0,0,0-.511,1.492,9.266,9.266,0,0,1-.437,1.316c-.2.539-.407,1.078-.568,1.628a6.363,6.363,0,0,0-.219.926,11.58,11.58,0,0,1-.276,1.18.952.952,0,0,0-.037.146c-.03.313-.05.626-.084.939a1.871,1.871,0,0,1-.079.29v.082c.008.436-.114.862-.087,1.3s0,.89.01,1.336c.007.26.061.517.075.777a4.214,4.214,0,0,0,.015.766c.061.236.034.468.075.7a10.507,10.507,0,0,1,.157,1.27c.166.193.039.448.148.668.093.187.041.438.1.647a7.453,7.453,0,0,1,.244,1.116c.018.146.177.236.193.406s.146.325.127.513c0,.038-.01.1.011.114.219.193.207.483.309.724a3.152,3.152,0,0,1,.265.742c.019.123.094.237.108.359a3.714,3.714,0,0,0,.378.937c.048.116.144.207.151.346a.2.2,0,0,0,.108.151.544.544,0,0,1,.282.327c.1.223.112.5.393.6.029.328.4.47.434.794.005.045.053.12.083.121.154.008.148.158.222.233a3,3,0,0,1,.2.279c.12.152.255.3.37.455s.189.354.328.516a7.46,7.46,0,0,0,1.014.994.762.762,0,0,1,.2.195,2.145,2.145,0,0,0,.794.794c.069.034.116.113.176.167a4.516,4.516,0,0,0,.678.609c.125.075.189.238.3.339a3.637,3.637,0,0,0,.523.4,4.517,4.517,0,0,0,.546.249l.08.08c.123,0,.245.007.366,0a.414.414,0,0,0,.365-.361,1.055,1.055,0,0,0-.534-1.115,2.714,2.714,0,0,1-.572-.482,10.53,10.53,0,0,0-1.391-1.15,1.66,1.66,0,0,1-.481-.489,2.025,2.025,0,0,0-.329-.387,4.384,4.384,0,0,1-.78-1.1c-.18-.335-.419-.637-.625-.958a18.508,18.508,0,0,1-1.262-2.073c-.123-.26-.216-.532-.317-.8-.167-.445-.342-.888-.467-1.349-.068-.252-.17-.5-.223-.757A6.47,6.47,0,0,1,10.4,42.4c-.025-.244-.1-.494-.146-.745s-.056-.5-.1-.734a4.644,4.644,0,0,1-.064-.821c0-.131-.128-.231-.084-.372.025-.008.046-.018.069-.027l-.069-.053A3.431,3.431,0,0,0,10,38.8a6.927,6.927,0,0,1-.068-1.263l.08-.08c0-.2-.007-.407,0-.609.022-.436.053-.87.08-1.3.158-.214.033-.478.135-.713a3.929,3.929,0,0,0,.113-.685,4.832,4.832,0,0,1,.176-.7c.135-.343.177-.707.3-1.05s.184-.711.338-1.035a9,9,0,0,1,.8-1.662,8.707,8.707,0,0,0,.5-.964c.246-.427.5-.854.78-1.257a7.422,7.422,0,0,0,.414-.764,3.012,3.012,0,0,1,.555-.784,5.606,5.606,0,0,0,.515-.519c.324-.408.728-.745,1.056-1.146a5.9,5.9,0,0,1,.764-.809,8.491,8.491,0,0,0,.645-.584c.192-.2.361-.421.55-.624a4.97,4.97,0,0,1,1.242-.92,3.709,3.709,0,0,0,.478-.314c.523-.414,1.076-.786,1.624-1.167.226-.157.52-.276.632-.566.044-.12.146-.034.195-.075a6.945,6.945,0,0,1,.875-.536c.336-.2.683-.387,1-.609.12-.083.28-.088.37-.233.074-.12.237-.1.354-.161a2.332,2.332,0,0,1,.4-.219,4.857,4.857,0,0,0,.942-.467A11.046,11.046,0,0,1,27.1,16.3a7.047,7.047,0,0,1,.983-.66c.3-.241.652-.415.948-.67.148-.125.3-.259.447-.381a12.572,12.572,0,0,1,1.22-.978.463.463,0,0,0,.087-.084,3.426,3.426,0,0,1,.761-.607,3.553,3.553,0,0,0,.513-.426,6.62,6.62,0,0,0,.6-.6,3.562,3.562,0,0,0,.773-1.1,2.162,2.162,0,0,1,.378-.655l.407-.082c.03.195-.06.395.056.587.094.157-.049.366.1.527.033.035,0,.129,0,.2,0,.472.025.946-.007,1.417a6.214,6.214,0,0,1-.178,1.059c-.076.316-.2.619-.3.928-.008.025.01.06,0,.079-.316.5-.427,1.1-.735,1.6a4.89,4.89,0,0,1-.938,1.066c-.193-.016-.163.178-.251.26a6.938,6.938,0,0,1-1.059.971c-.208.124-.327.329-.524.471a11.755,11.755,0,0,0-1.039.93,7.884,7.884,0,0,1-1.277.935,4.876,4.876,0,0,1-.923.421,4.492,4.492,0,0,0-.884.508c-.429.265-.811.594-1.224.874s-.806.531-1.212.792c-.442.285-.859.607-1.291.9a7.766,7.766,0,0,0-1.08.922.834.834,0,0,1-.28.2,2.547,2.547,0,0,0-.761.517,26.042,26.042,0,0,0-1.99,1.924A4.857,4.857,0,0,0,17.4,29.5a.567.567,0,0,1-.132.188A7.015,7.015,0,0,0,16.1,31.227a16.543,16.543,0,0,0-1.067,1.99c-.208.455-.451.9-.619,1.364-.1.268-.17.551-.267.822s-.118.538-.222.8a2.853,2.853,0,0,0-.1.69l-.082.08a8.576,8.576,0,0,0-.08,1.137,1.2,1.2,0,0,0-.079.692c-.008.606-.005,1.21,0,1.815a.463.463,0,0,1-.084.329l.083.082" transform="translate(1.533 0)" fill="#ef4023"/>
      <path id="Path_4256" data-name="Path 4256" d="M85.24,40.744c-.027-.022-.076-.041-.078-.064-.01-.121,0-.244,0-.365q0-4.5,0-8.992c0-.421-.1-.837-.088-1.263a.929.929,0,0,0-.162-.532A1.971,1.971,0,0,0,84.363,29a2.661,2.661,0,0,0-1.37-.427,3.8,3.8,0,0,0-1.62.414,2.663,2.663,0,0,0-.813.671.629.629,0,0,0-.118.436c.007,1.351,0,2.7,0,4.052,0,1.282-.014,2.565.008,3.847a7.188,7.188,0,0,1-.108,1.179,1.353,1.353,0,0,1-.359.779c-.148.14-.289.285-.43.429a1.285,1.285,0,0,1-.779.384,5.009,5.009,0,0,0-.655.078,1.859,1.859,0,0,1-.619.067c-.193-.011-.383-.063-.577-.075s-.406.008-.607-.008a1.664,1.664,0,0,1-.342-.109V25.5l.079-.08c.045-.027.088-.079.131-.078.587.031,1.164-.147,1.754-.086.025,0,.056-.007.08,0,.124.045.246.094.372.142.125-.174.227.08.347.019.027.027.053.054.08.08.14-.044.241.084.372.082.154,0,.162.133.227.225.086.118.189.268.315.306.208.063.113.259.218.361a1.9,1.9,0,0,1,.244.366c.113-.109.208-.2.3-.293A4.891,4.891,0,0,1,82.33,25.4c.264-.1.539-.131.8-.229.08-.031.206.075.244-.08a2.442,2.442,0,0,0,.685-.012,3.622,3.622,0,0,1,1.025-.064c.177,0,.354.06.534.072s.38-.005.568.007a.888.888,0,0,1,.29.08c.229.1.447.229.679.317a.591.591,0,0,1,.4.309c.045.1.2.151.3.236s.193.189.287.285.206.106.21.276c0,.1.146.2.214.31s.116.222.173.332c.039.075.082.147.133.238a3.621,3.621,0,0,0,.671-.752,1.793,1.793,0,0,1,.441-.425,2.367,2.367,0,0,0,.393-.32,5.518,5.518,0,0,1,.856-.482,1.129,1.129,0,0,1,.626-.246c.129-.152.3-.053.453-.082l.082-.08a3.792,3.792,0,0,0,.889-.016,3.536,3.536,0,0,1,.7-.064,7.642,7.642,0,0,1,1.007.118c.018,0,.05.031.056.026.2-.21.4.012.588.033a1.726,1.726,0,0,1,.653.271,4.08,4.08,0,0,1,.813.577,3.759,3.759,0,0,1,.734.988c.118.248.223.5.325.757s.152.5.234.754a2.6,2.6,0,0,1,.088.652c.011.195.12.369.091.575a.812.812,0,0,0,.069.536c.035.061.005.159.005.24,0,2.743.02,5.487-.012,8.23a1.894,1.894,0,0,1-1.419,1.89,4.478,4.478,0,0,1-.863.178,3.7,3.7,0,0,1-.659.061c-.18-.008-.355-.061-.535-.074s-.381.008-.569-.008a1.532,1.532,0,0,1-.331-.117v-.268q0-4.783,0-9.565c0-.327-.049-.653-.08-.98a.357.357,0,0,0-.048-.1A2.024,2.024,0,0,0,92.7,28.655a3.885,3.885,0,0,0-1.105-.063,2.374,2.374,0,0,0-.653.18,3.189,3.189,0,0,0-1.157.742.772.772,0,0,0-.244.589c.007,1.69,0,3.379,0,5.067,0,1.163,0,2.324,0,3.487a2.863,2.863,0,0,1-.644,1.562,3.689,3.689,0,0,1-1.082.528,3.385,3.385,0,0,1-1.393.144,8.7,8.7,0,0,0-1.108-.065l-.08-.082" transform="translate(27.461 9.041)" fill="#1e3549"/>
      <path id="Path_4257" data-name="Path 4257" d="M42.194,34.636c0,1.826-.005,3.621,0,5.417a3.6,3.6,0,0,1-.287,1.221,2.226,2.226,0,0,1-.342.585.8.8,0,0,1-.513.327c-.181.031-.346.133-.542.169a4.481,4.481,0,0,0-.535.074,2.431,2.431,0,0,1-.821.068c-.18-.007-.357-.061-.535-.075s-.38.01-.569-.007a1.5,1.5,0,0,1-.328-.12v-.268c0-.527,0-1.054,0-1.581,0-.6.117-1.189.088-1.79s-.007-1.189-.007-1.783V26.051c0-.607-.005-1.216,0-1.824.005-.4-.118-.78-.088-1.182s.005-.784.005-1.175V20.624c.1,0,.2-.015.3-.015,2.3,0,4.6,0,6.905-.005a2.275,2.275,0,0,1,.494.086c.151.031.32-.068.46.071.027.027.1.012.157.01a3.748,3.748,0,0,1,1.065.182,5.52,5.52,0,0,1,1.048.3,7,7,0,0,1,1.01.4.856.856,0,0,1,.308.238c.068.1.248.123.35.211a3.786,3.786,0,0,0,.712.442,2.385,2.385,0,0,1,.643.592c.158.181.286.395.432.591a2.6,2.6,0,0,1,.319.636c.128.339.229.689.338,1.035a4.688,4.688,0,0,1,.157.988c.033.347.007.7.007,1.052,0,.2.014.407,0,.607a5.153,5.153,0,0,1-.214,1.167c-.078.241-.12.491-.192.732a4.856,4.856,0,0,1-.408.965,3.34,3.34,0,0,1-.32.4A9.366,9.366,0,0,1,50.4,32.4c-.181.172-.378.327-.568.489a5.894,5.894,0,0,1-.545.453,3.231,3.231,0,0,1-.73.392c-.438.148-.867.332-1.318.444a4.8,4.8,0,0,1-1.009.218,2.949,2.949,0,0,0-.526.1,1.037,1.037,0,0,1-.219.056c-.546-.005-1.082.118-1.632.09s-1.082-.005-1.661-.005m.162-3.325a19.514,19.514,0,0,0,2.2-.067c.34-.059.688-.091,1.025-.178a4.943,4.943,0,0,0,.54-.163c.176-.067.289-.263.506-.248.173-.185.355-.362.517-.557a4.653,4.653,0,0,0,.331-.671,3.166,3.166,0,0,0,.4-1.575c.008-.244-.014-.487.005-.73a3.193,3.193,0,0,0-.165-1.067,2.8,2.8,0,0,0-1-1.446,4.462,4.462,0,0,0-1.31-.649,3.942,3.942,0,0,0-1.14-.181c-.54-.03-1.082,0-1.624-.012a.941.941,0,0,0-.441.114.131.131,0,0,0-.011.035v7.21a.66.66,0,0,0,.015.155c0,.015.042.02.065.03s.018.045.027.067l.054-.067" transform="translate(13.631 7.447)" fill="#1e3549"/>
      <path id="Path_4258" data-name="Path 4258" d="M99.5,25.1c.365,0,.73,0,1.1,0a7.847,7.847,0,0,1,.982-.086c.312.042.626.068.941.082s.651-.011.973.008c.178.011.35.075.535.084.169.01.332.127.5.146.191.02.313.173.487.2.154.023.17.212.35.229.132.014.253.165.376.257s.252.184.368.287a3.736,3.736,0,0,1,.344.344c.1.116.265.187.289.365a1.126,1.126,0,0,1,.466.692,2.046,2.046,0,0,1,.253.788,10.392,10.392,0,0,1,.32,1.2.936.936,0,0,1,.005.321c0,2.472-.005,4.943,0,7.416a13,13,0,0,1,.076,1.3,4.12,4.12,0,0,1,.227.836c.1.274.246.521.362.8a1.269,1.269,0,0,1-.2.123,3.165,3.165,0,0,1-.712.236,7.009,7.009,0,0,1-1.514.167,3.92,3.92,0,0,1-.978-.188,1.444,1.444,0,0,1-.75-.6c-.094-.162-.28-.263-.29-.491,0-.113-.176-.133-.294-.049a11.344,11.344,0,0,1-1.74.994,9.34,9.34,0,0,1-1.2.421,1.563,1.563,0,0,1-.536.079c-.3-.012-.591.116-.9.086-.294-.027-.595-.005-.892-.005l-.082-.082a3.015,3.015,0,0,1-1.722-.543c-.3-.05-.451-.369-.754-.44-.1-.023-.178-.157-.26-.248a5.373,5.373,0,0,1-.968-1.544,4.965,4.965,0,0,1-.3-1.058,10.121,10.121,0,0,1-.059-1.144,1,1,0,0,1,.033-.509c.1-.159-.054-.362.127-.478a2.106,2.106,0,0,1,.289-.934,1.575,1.575,0,0,1,.4-.565,1.324,1.324,0,0,0,.4-.479c.358-.178.545-.569.914-.734.034-.015.08-.016.1-.041a3.6,3.6,0,0,1,1.507-.775c.449-.169.931-.215,1.379-.392.093-.037.215,0,.32-.012a2.02,2.02,0,0,1,.291-.072,3.59,3.59,0,0,0,.776-.108c.276-.048.555-.007.82-.067a9.767,9.767,0,0,1,1.714-.075.814.814,0,0,0,.082,0c.125-.016.236-.146.176-.248a.764.764,0,0,1-.074-.417,1.772,1.772,0,0,0-1.385-1.841,1.131,1.131,0,0,0-.493-.1c-.161.02-.313-.1-.493-.079-.2.025-.408-.012-.609.01a3.72,3.72,0,0,0-1.363.233,8.4,8.4,0,0,0-2.212.832,3.178,3.178,0,0,1-.5.267c-.131.035-.219.064-.309-.048-.114-.142-.24-.276-.342-.426a6.943,6.943,0,0,1-.581-1.5.99.99,0,0,1,.393-.927,6.351,6.351,0,0,1,1.387-.862,5.371,5.371,0,0,1,1.291-.414c.184-.034.358-.121.543-.154a2.555,2.555,0,0,1,.445-.005c.061-.012.155.041.163-.08m3.168,8.189h-.082a1.91,1.91,0,0,1-.412.076,9.059,9.059,0,0,1-.939.09c-.042-.005-.088.048-.135.06-.148.037-.3.064-.447.1-.172.041-.343.083-.513.131a2.179,2.179,0,0,0-1.273.935,2.376,2.376,0,0,0-.346,1.978,2.111,2.111,0,0,0,.5.884,1.076,1.076,0,0,0,.481.3,1.958,1.958,0,0,0,.417.069c.152.018.3.059.453.078.494.067.975-.114,1.468-.079.185-.112.414-.083.6-.211.286-.2.576-.38.85-.6a.648.648,0,0,0,.274-.577c-.008-1.051,0-2.1,0-3.156.023-.01.045-.019.068-.027l-.068-.054Z" transform="translate(34.079 9.038)" fill="#1e3549"/>
      <path id="Path_4259" data-name="Path 4259" d="M73.045,30.77c-.027-.15-.065-.3-.079-.452a3.147,3.147,0,0,0-.011-.482,2.909,2.909,0,0,0-.214-.558,2.013,2.013,0,0,0-.814-.854,1.656,1.656,0,0,0-.5-.165,8.6,8.6,0,0,0-1.865-.074c-.169.059-.344.026-.493.082a1.423,1.423,0,0,1-.5.071c-.027.026-.053.053-.08.08a2.914,2.914,0,0,0-.4.117c-.513.231-1.021.474-1.53.712-.2.1-.4.2-.613.282a.29.29,0,0,1-.359-.068,2.769,2.769,0,0,1-.362-.5,9.76,9.76,0,0,1-.526-1.282.885.885,0,0,1,.167-.794,3,3,0,0,1,.894-.749c.5-.328,1.1-.429,1.615-.708.462-.035.87-.344,1.355-.256a1.423,1.423,0,0,0,.229,0c.035-.005.064-.05.1-.078a4.638,4.638,0,0,0,1.012-.015,4.5,4.5,0,0,1,1.027-.06c.3,0,.6.059.9.072a8.1,8.1,0,0,1,.892.012,4.671,4.671,0,0,1,1.062.274,2.121,2.121,0,0,0,.686.211.364.364,0,0,1,.289.188c.086.135.3.169.444.283a1.889,1.889,0,0,1,.436.422c.129.206.275.4.406.6a2.663,2.663,0,0,1,.173.334,8.4,8.4,0,0,1,.411.8,6.788,6.788,0,0,1,.215.84c.025.132.218.272.038.427a3.423,3.423,0,0,1,.117.415,3.731,3.731,0,0,1,.019.479c0,.162,0,.324,0,.486,0,2.215,0,4.43,0,6.645a12.182,12.182,0,0,0,.1,1.262,3.388,3.388,0,0,0,.58,1.572.989.989,0,0,1-.211.147,2.138,2.138,0,0,0-.534.177c-.176.129-.4-.023-.551.15-.011.014-.052,0-.079,0a1.977,1.977,0,0,0-.539.067.643.643,0,0,1-.5-.044c-.178-.1-.422.056-.6-.1a1.961,1.961,0,0,1-.988-.455,1.348,1.348,0,0,1-.477-.649c-.069-.163-.151-.127-.233-.088a1.518,1.518,0,0,0-.419.257,7.458,7.458,0,0,1-.863.579,2.647,2.647,0,0,1-1.071.441,4.4,4.4,0,0,0-.583.159c-.255.082-.531.031-.775.094a3.7,3.7,0,0,1-.945.061.955.955,0,0,1-.542-.064c-.133-.078-.342.05-.487-.093a3.9,3.9,0,0,1-1.5-.49,2.047,2.047,0,0,1-.66-.464,6.44,6.44,0,0,1-.779-.854,3.405,3.405,0,0,1-.515-1.25,6.752,6.752,0,0,0-.074-.777,4.713,4.713,0,0,1-.067-1.266,5.652,5.652,0,0,1,.076-.737l.067-.026c-.022-.019-.045-.037-.067-.054a4.074,4.074,0,0,1,.1-.692,1.048,1.048,0,0,1,.351-.624,6.253,6.253,0,0,0,.466-.534,4.675,4.675,0,0,1,1.036-.826,9.268,9.268,0,0,1,1.557-.75c.46-.176.934-.29,1.4-.452.178-.063.38-.029.575-.078a1.578,1.578,0,0,1,.448-.1c.163.005.325,0,.487,0l.082-.082a3.712,3.712,0,0,0,.807-.01,10.293,10.293,0,0,1,1.711-.071l.082-.082m-.082,2.595.067-.027c-.022-.018-.045-.035-.067-.054-.189,0-.38-.01-.568,0a1.671,1.671,0,0,0-.509.042,2.44,2.44,0,0,1-.553.038c-.112.011-.221.061-.332.076-.128.016-.267-.033-.372.083-.351,0-.674.163-1.028.172a1.022,1.022,0,0,0-.5.161,5.869,5.869,0,0,0-.973.884c-.018.016-.042.041-.041.063.005.325-.2.613-.169.945.019.215-.007.433.007.648s.063.436.074.655a.2.2,0,0,0,.121.188c.087.029.14.044.132.15a.173.173,0,0,0,.063.132c.225.166.418.4.734.377.074-.005.1.148.189.034.1-.131.148.053.237.059a15.151,15.151,0,0,0,1.954-.091,1.222,1.222,0,0,0,.449-.182c.377-.283.735-.591,1.082-.874Z" transform="translate(23.08 9.042)" fill="#1e3549"/>
      <path id="Path_4260" data-name="Path 4260" d="M110.921,20.707v.41q0,9.567.01,19.136a2.6,2.6,0,0,1-.489,1.3,2.261,2.261,0,0,1-1.376.8,4.658,4.658,0,0,0-.534.079,1.381,1.381,0,0,1-.538.068c-.193-.014-.384-.063-.577-.075s-.406.005-.609-.008a1.152,1.152,0,0,1-.275-.1v-.34q0-9.547,0-19.094a2.751,2.751,0,0,1,.093-.814,4.528,4.528,0,0,0,.206-.437c.035-.2.291-.17.3-.359.169,0,.174-.165.259-.248a.724.724,0,0,1,.3-.147,3.539,3.539,0,0,1,1.11-.267,10.771,10.771,0,0,1,2.12.1" transform="translate(38.504 7.447)" fill="#1e3549"/>
      <path id="Path_4261" data-name="Path 4261" d="M60.109,26.893c.222-.249.323-.55.625-.7.182-.091.293-.289.482-.4a4.047,4.047,0,0,1,1.409-.628c.15-.025.3-.052.455-.068.193-.02.384-.063.576-.078.358-.026.7.138,1.063.079.2.1.4.2.6.31.034.018.054.061.087.083.124.082.251.158.376.237-.079.191.219.237.162.419a.6.6,0,0,1,.159.58,6.783,6.783,0,0,1-.456,1.715,4.879,4.879,0,0,0-.192.568,1.878,1.878,0,0,1-.162.338c-.174.282-.321.317-.641.178a8.336,8.336,0,0,0-1-.422,2.944,2.944,0,0,0-1.34-.189,4.025,4.025,0,0,0-.752.241c-.2.078-.384.185-.573.282a1.255,1.255,0,0,0-.659,1.02,15.376,15.376,0,0,0-.068,2.2c-.015.742,0,1.485,0,2.227v2.229c0,.581,0,1.161,0,1.743a1.8,1.8,0,0,1-.5,1.209,1.825,1.825,0,0,1-.445.385,2.2,2.2,0,0,1-1.223.383c-.261.005-.511.1-.779.086a6.653,6.653,0,0,0-1.1-.094.963.963,0,0,1-.338-.108,8.191,8.191,0,0,1,.015-1.318,10.039,10.039,0,0,0,.064-1.427c.011-.486,0-.973,0-1.459q0-4.274,0-8.548c0-.37-.121-.726-.09-1.1s.005-.728.005-1.093c0-.08,0-.162,0-.242.005-.108.072-.192.172-.177a8.659,8.659,0,0,0,.941-.088c.244.01.487.007.731,0a5.171,5.171,0,0,1,.694.1,1.527,1.527,0,0,1,.671.321,2.259,2.259,0,0,0,.512.339.186.186,0,0,1,.094.12c.05.309.329.476.422.756" transform="translate(20.186 9.041)" fill="#1e3549"/>
      <path id="Path_4262" data-name="Path 4262" d="M.413,12.372C.441,11.79.274,11.22.331,10.637.192,10.268.24,9.865.1,9.488a3.444,3.444,0,0,1-.094-.847c.031-.079-.076-.2.082-.242A1.028,1.028,0,0,1,.5,8.684c.427.456.874.9,1.282,1.371a4.92,4.92,0,0,1,.588.964,7.087,7.087,0,0,1,.588,1.333A3.37,3.37,0,0,1,3.1,12.9c.01.125.06.246.074.37a3.183,3.183,0,0,0,.01.362c.025.106.124.193.15.3a1.933,1.933,0,0,1,.019.357c0,.02.035.041.056.057.1.079.143.158.02.257a1.075,1.075,0,0,0,.074.121c.029.027.056.054.08.082-.007.076-.016.152-.027.23,0,.029-.027.076-.019.082.165.109.116.278.131.432.035.351.034.712.1,1.051a11.5,11.5,0,0,1,.06,1.66c.018.415,0,.832,0,1.248l-.082.082c0,.2,0,.4,0,.6.016.516-.14,1.022-.082,1.54-.146.316-.012.663-.094.972A5.147,5.147,0,0,0,3.5,23.723l-.082.08v1.055l-.067.026c.022.019.045.037.067.054v.324l-.082.082c0,.35-.014.7.005,1.051.022.372-.123.723-.091,1.1s.005.726.005,1.091,0,.754,0,1.131c0,.528.136,1.05.086,1.582-.014.129.121.231.078.37l-.082.061.082.1a11.922,11.922,0,0,0,.1,1.289c.031.178.031.361.076.53s.033.338.082.487a2.723,2.723,0,0,1,.071.775l.082.08a7.3,7.3,0,0,0,.2.889c.031.188.084.372.123.557.011.052,0,.114.022.152a1.431,1.431,0,0,1,.142.835v.08c.029.139-.075.214-.162.274a.676.676,0,0,1-.245.052H3.664c-.214-.113-.231-.344-.327-.53a12.41,12.41,0,0,1-.391-1.255,3.777,3.777,0,0,0-.192-.445,9.323,9.323,0,0,1-.63-1.483c-.246-.668-.453-1.351-.677-2.027-.1-.309-.21-.615-.3-.928s-.177-.63-.257-.948C.761,29.709.669,29.2.564,28.69c-.037-.18-.044-.358-.075-.534a1.643,1.643,0,0,1-.076-.494c.011-.129-.125-.231-.082-.372L.4,27.264.331,27.21c-.027-.163-.065-.325-.078-.489A2.333,2.333,0,0,0,.24,26.2a1.71,1.71,0,0,1-.071-.534l.068-.026-.068-.054V23.48c0-.147,0-.3,0-.442C.158,22.5.3,21.962.256,21.417a.855.855,0,0,1,.075-.289v-.08c0-.135.005-.27,0-.4-.02-.678.142-1.349.082-2.029a12.382,12.382,0,0,0,.082-2.189L.561,16.4l-.067-.054V12.858C.482,12.8.534,12.7.413,12.7v-.242l.067-.027-.067-.054" transform="translate(0 3.036)" fill="#ef4023"/>
      <path id="Path_4263" data-name="Path 4263" d="M54.647,25.521q0,6.541,0,13.083a2.761,2.761,0,0,1-.252,1.07,1.607,1.607,0,0,1-.61.668,2.892,2.892,0,0,1-1.323.438,3.962,3.962,0,0,1-.858.05,3.074,3.074,0,0,0-.577-.065c-.065,0-.131.039-.2.039a.59.59,0,0,1-.184-.042,1.06,1.06,0,0,1-.28-.1.33.33,0,0,1-.1-.2,1.618,1.618,0,0,1,0-.282V27.627c0-.108-.042-.245.008-.319.125-.181.02-.389.108-.565a4.19,4.19,0,0,1,.3-.565,1.247,1.247,0,0,1,.915-.66c.044,0,.084-.071.129-.075.23-.019.407-.216.663-.172.219.038.423-.112.656-.082a5.345,5.345,0,0,1,.727.019,6.368,6.368,0,0,0,.776.083c.012,0,.019.044.029.067.012.061-.039.155.082.162" transform="translate(18.159 9.102)" fill="#1e3549"/>
      <path id="Path_4264" data-name="Path 4264" d="M104.465,45.153c0,2.242,0,4.483,0,6.725a5.415,5.415,0,0,1-.08.737.2.2,0,0,1-.086.123,1.4,1.4,0,0,1-.818.286,1.541,1.541,0,0,1-.722-.312c-.094-.06-.121-.241-.154-.373a1.153,1.153,0,0,1-.005-.283c0-2.647,0-5.293,0-7.941a1.463,1.463,0,0,1,.244-.833.5.5,0,0,1,.413-.234,2.457,2.457,0,0,1,.283,0c.475,0,.585.076.784.545a.7.7,0,0,0,.572-.12A7.048,7.048,0,0,1,106.111,43a1.759,1.759,0,0,1,.644-.116c.229.016.46,0,.69,0a4.215,4.215,0,0,1,1.993.573.861.861,0,0,1,.4.429c.039.1.14.219.27.06.173.048.246-.121.374-.172.338-.132.673-.274,1.01-.4.2-.075.407-.128.607-.2a1.719,1.719,0,0,1,.6-.132,2.842,2.842,0,0,0,.575-.076,1.488,1.488,0,0,1,.908,0,.917.917,0,0,0,.2,0,2.455,2.455,0,0,1,.994.246,4.648,4.648,0,0,1,1.675,1.246.84.84,0,0,1,.17.252,3.957,3.957,0,0,1,.338,1.446c-.02,2.065-.011,4.132-.005,6.2,0,.244-.031.421-.3.53-.146.059-.256.211-.438.218-.007-.123-.1-.069-.162-.082-.27.061-.448-.112-.621-.263a.7.7,0,0,1-.192-.566q0-2.979,0-5.958a1.676,1.676,0,0,0-.155-.708,1.567,1.567,0,0,0-.96-.888,3.317,3.317,0,0,0-1.574-.2,6.092,6.092,0,0,0-1.123.221c-.355.121-.73.188-1.081.331a.414.414,0,0,1-.117.008c-.121.244.1.455.057.688.131.1.074.248.075.373q0,3.143,0,6.283c0,.127.074.282-.065.376a1.607,1.607,0,0,1-.527.289.808.808,0,0,1-.709-.14.612.612,0,0,1-.237-.41,1.6,1.6,0,0,1,0-.242c0-1.973.01-3.945-.005-5.918a1.85,1.85,0,0,0-.742-1.51,1.992,1.992,0,0,0-.692-.286,4.993,4.993,0,0,0-1.43-.065,2.627,2.627,0,0,0-.572.086,4.028,4.028,0,0,0-.5.161c-.167.069-.346.075-.508.147a1.961,1.961,0,0,0-.508.244l-.067.027c.022.018.044.037.067.054" transform="translate(37.079 15.497)" fill="#243645"/>
      <path id="Path_4265" data-name="Path 4265" d="M136.744,54.221h-.609a3.415,3.415,0,0,1-1.587-.283,1.221,1.221,0,0,0-.475-.112.789.789,0,0,1-.566-.211c-.29-.208-.464-.551-.8-.709.044-.237-.191-.324-.275-.494a8.12,8.12,0,0,1-.585-1.338,2.416,2.416,0,0,1-.142-.591c-.007-.165-.054-.328-.076-.493a3.4,3.4,0,0,0-.064-.457.816.816,0,0,1,.045-.618c.052-.093.01-.236.019-.355a3.6,3.6,0,0,1,.094-.854,8.169,8.169,0,0,1,.312-.882,11.615,11.615,0,0,1,.651-1.148.493.493,0,0,1,.109-.117c.2-.167.393-.339.6-.5.12-.093.267-.151.383-.248a6.636,6.636,0,0,1,.794-.442,5.989,5.989,0,0,1,.855-.28.552.552,0,0,1,.2,0c.285,0,.569.014.852,0a4.041,4.041,0,0,1,1.47.272,10.144,10.144,0,0,1,1.156.542c.011.057-.038.146.061.159.135.019.094-.088.1-.159,0-1.378,0-2.754,0-4.132a1.937,1.937,0,0,1,.083-.572.6.6,0,0,1,.425-.376.732.732,0,0,1,.607.048c.267.163.47.3.494.442a4.189,4.189,0,0,1,.088.732c.007,2.282,0,4.564,0,6.845q0,2.673,0,5.346c0,.238.02.483-.192.648a.945.945,0,0,1-.7.26h-.082c-.3-.046-.6-.088-.655-.486-.022-.157-.11-.182-.246-.113a5.533,5.533,0,0,1-1.1.368l-1.163.313-.027-.068c-.018.023-.037.045-.054.068m2.519-4.984c0-.756-.026-1.513.011-2.265a.609.609,0,0,0-.453-.7,1.179,1.179,0,0,1-.129-.079,6.672,6.672,0,0,0-1.255-.491,3.018,3.018,0,0,0-1.07-.159c-.176.011-.351,0-.527,0a.889.889,0,0,0-.2.011,2.929,2.929,0,0,0-1.65,1.169,5.188,5.188,0,0,0-.46,1.184,2.5,2.5,0,0,0-.109.722,6.139,6.139,0,0,0,.074,1.626c.079.278.034.591.236.833a2.4,2.4,0,0,0,2.192,1.675,3.493,3.493,0,0,1,.609,0,2.862,2.862,0,0,0,1.093-.2,12.472,12.472,0,0,0,1.453-.6.268.268,0,0,0,.189-.291c0-.81,0-1.619,0-2.429" transform="translate(47.536 14.376)" fill="#243645"/>
      <path id="Path_4266" data-name="Path 4266" d="M39.394,49.258v3.711a1.581,1.581,0,0,1-.065.417.455.455,0,0,1-.212.313,1.165,1.165,0,0,1-1.133.052.8.8,0,0,1-.373-.579.9.9,0,0,1,0-.242V41.378c0-.12-.039-.3.02-.347.114-.083-.023-.237.144-.3.185-.067.316-.241.551-.24,1.611.01,3.222-.01,4.833.018a2.532,2.532,0,0,1,.908.148c.063.025.151.068.192.044a.229.229,0,0,1,.255-.01.38.38,0,0,0,.223.044.681.681,0,0,1,.4.106c.093.041.167.12.257.166s.18.041.242.094.11.173.178.246c.157.167.319.332.487.487a2.957,2.957,0,0,1,.807,1.37,5.019,5.019,0,0,1,.234,2.167,7.718,7.718,0,0,1-.184.89,4.935,4.935,0,0,1-.713,1.408,3.433,3.433,0,0,1-.595.607c-.053.05-.144.064-.192.118a1.779,1.779,0,0,1-.813.49,8.122,8.122,0,0,1-1.342.3,13.447,13.447,0,0,1-2.039.068c-.677.016-1.353,0-2.072,0m0-1.541h.9c.459,0,.92.01,1.379,0a6.438,6.438,0,0,0,1.39-.067c.181-.046.383-.046.573-.091a2.822,2.822,0,0,0,1.4-.727,1.914,1.914,0,0,0,.532-1.318c.018-.5,0-1,0-1.5a1.717,1.717,0,0,0-.26-.862,2.217,2.217,0,0,0-.675-.689,5.643,5.643,0,0,0-1.371-.5A10.369,10.369,0,0,1,42,41.878c-.392.007-.784,0-1.176,0s-.784,0-1.178,0c-.176,0-.24.063-.248.226-.005.08,0,.162,0,.242v5.368Z" transform="translate(13.587 14.637)" fill="#243645"/>
      <path id="Path_4267" data-name="Path 4267" d="M84.678,53.08c-.256,0-.515-.014-.771,0a4.371,4.371,0,0,1-1.5-.286,4.37,4.37,0,0,0-.513-.133,1.023,1.023,0,0,1-.5-.244,6.166,6.166,0,0,1-1.021-1.273,9.057,9.057,0,0,1-.617-1.487c-.011-.023-.029-.046-.026-.069.027-.317-.121-.617-.088-.938a2.345,2.345,0,0,0-.071-.372,1.735,1.735,0,0,1,0-.4,7.144,7.144,0,0,1,.331-1.846A4.359,4.359,0,0,1,81,44.226c.206-.174.436-.316.656-.47.041-.029.1-.042.128-.079a2.408,2.408,0,0,1,1.123-.621,2.155,2.155,0,0,1,.643-.108,9.2,9.2,0,0,1,1.255,0,2.615,2.615,0,0,1,1.432.452,2.33,2.33,0,0,0,.332.174c.157.084.309.172.463.257.034.027.071.08.1.076.1-.014.052-.1.061-.158a.516.516,0,0,1,.075-.294.868.868,0,0,1,.956-.436.73.73,0,0,1,.636.494,1.537,1.537,0,0,1,.117.555q.01,4.086,0,8.171a.825.825,0,0,1-.723.752c-.053,0-.11-.005-.163,0a.943.943,0,0,1-.847-.4.2.2,0,0,1-.049-.139c.008-.132-.078-.118-.158-.112a.338.338,0,0,0-.1.048,2.422,2.422,0,0,1-.536.264,2.962,2.962,0,0,0-.545.158c-.184.076-.388.1-.58.165a1.583,1.583,0,0,1-.521.012l-.083.08m2.434-7.658c-.071-.045-.136-.083-.2-.125a5.591,5.591,0,0,0-1.122-.625,5.269,5.269,0,0,0-.905-.261,4.883,4.883,0,0,0-1.586.084c-.41.155-.889.246-1.061.752a.157.157,0,0,1-.049.06.885.885,0,0,0-.206.361.909.909,0,0,1-.231.385c-.147.116,0,.3-.137.395a4.983,4.983,0,0,0-.192,1.179,2.511,2.511,0,0,1,0,.526,4.633,4.633,0,0,0,.176,1.511,1.058,1.058,0,0,0,.1.4,3.051,3.051,0,0,1,.3.527,1.387,1.387,0,0,0,.364.531,2.358,2.358,0,0,0,1.292.5c.257,0,.513,0,.771,0,.165,0,.357.056.482-.014.154-.086.347.005.466-.148a.564.564,0,0,0,.408-.094c.448-.222.89-.455,1.327-.682Z" transform="translate(28.752 15.516)" fill="#243645"/>
      <path id="Path_4268" data-name="Path 4268" d="M125.65,48.561a3.157,3.157,0,0,1,.079.331c.015.1-.018.214.084.29a.692.692,0,0,0,.173.534c.1.166,0,.417.233.513,0,.37.3.553.528.749a2.513,2.513,0,0,0,.915.526c.035.01.064.049.1.056a4.608,4.608,0,0,0,.576.079c.338.012.677,0,1.014,0a1.814,1.814,0,0,0,.879-.229c.244-.128.5-.226.749-.349a1.784,1.784,0,0,0,.549-.324c.2-.218.46-.216.692-.306s.66.2.743.471a.655.655,0,0,1-.177.791,4.04,4.04,0,0,1-1.186.859.9.9,0,0,1-.308.133,4.729,4.729,0,0,0-1.209.319,3.179,3.179,0,0,1-.693.09c-.229.015-.462-.016-.689.008-.417.042-.815-.091-1.225-.086a.137.137,0,0,1-.041,0,5.028,5.028,0,0,1-1.63-.773,1.532,1.532,0,0,0-.28-.2c-.312-.2-.283-.221-.545-.53a5.591,5.591,0,0,1-.388-.575,4.074,4.074,0,0,1-.568-1.344,7.772,7.772,0,0,1-.177-1.066c-.019-.216-.059-.436-.068-.656-.007-.185.121-.34.09-.535a.977.977,0,0,1,.068-.535,3.94,3.94,0,0,0,.1-.486c.045-.169.11-.332.169-.5a3.183,3.183,0,0,1,1.224-1.643c.067-.246.323-.255.483-.385s.332-.3.515-.425a1.2,1.2,0,0,1,.546-.25,3.174,3.174,0,0,0,.463-.152c.147-.041.324.069.452-.083a7.651,7.651,0,0,0,.771-.005,8.353,8.353,0,0,1,1.314.178,1.233,1.233,0,0,1,.467.233,5.448,5.448,0,0,1,1.086.711,2.092,2.092,0,0,0,.487.392c.1.054.133.133.189.207a4.368,4.368,0,0,1,.779,1.5c.056.208.093.423.152.626a4.451,4.451,0,0,1,.068,1.184c.011.385-.18.565-.57.565q-2.7,0-5.4,0h-1.5l-.082.082m5.767-1.386a2.505,2.505,0,0,0-.1-.6,2.131,2.131,0,0,0-.261-.7c-.109-.191-.255-.354-.364-.538a1.893,1.893,0,0,0-1.533-.9,4.038,4.038,0,0,0-1.466.059,3.417,3.417,0,0,0-1.214.595.939.939,0,0,0-.261.377c-.059.124-.113.25-.163.378a4.3,4.3,0,0,0-.291.769c-.037.182-.083.362-.128.555Z" transform="translate(44.737 15.496)" fill="#243645"/>
      <path id="Path_4269" data-name="Path 4269" d="M62.882,52.347a.394.394,0,0,1-.1.359.9.9,0,0,1-.485.276c-.319.037-.671.09-.916-.223-.223-.042-.181-.24-.236-.423a1.37,1.37,0,0,0-.237.075,9.593,9.593,0,0,1-1.244.429,5.584,5.584,0,0,1-1.809.248,6.939,6.939,0,0,1-1.522-.259c-.084-.148-.241-.06-.362-.106a2.425,2.425,0,0,1-1.14-.885c-.14-.2-.282-.4-.426-.594a6.062,6.062,0,0,1-.628-1.364,1.292,1.292,0,0,1-.084-.453,1.581,1.581,0,0,0-.087-.57,1.393,1.393,0,0,1-.069-.579c-.008-.2,0-.406,0-.609a.951.951,0,0,1,.074-.456c.063-.121-.057-.294.082-.413a4.359,4.359,0,0,1,.421-1.408,3.45,3.45,0,0,1,.354-.583,2.081,2.081,0,0,1,.784-.737,1.086,1.086,0,0,0,.3-.263,2.3,2.3,0,0,1,1.172-.7,3.022,3.022,0,0,1,1.029-.167c.215.01.433,0,.649,0a4.29,4.29,0,0,1,2.363.765,1.022,1.022,0,0,0,.4.112.7.7,0,0,1,.474-.722.867.867,0,0,1,1.2.392.6.6,0,0,1,.048.3c0,1.095,0,2.189,0,3.284v5.27Zm-1.788-4.253c0-.783-.008-1.566.005-2.347a.479.479,0,0,0-.2-.445,1.964,1.964,0,0,0-.255-.169c-.265-.139-.534-.275-.806-.4a3.156,3.156,0,0,0-1.364-.329c-.215,0-.433.012-.648,0a1.6,1.6,0,0,0-.534.086,2.6,2.6,0,0,0-1.34.875c-.056.068-.135.152-.131.225.012.221-.207.357-.174.581s-.123.391-.147.581a6.141,6.141,0,0,0-.173,1.51c.019.178.063.355.078.534a5.591,5.591,0,0,0,.144.749,4.2,4.2,0,0,1,.167.735.629.629,0,0,0,.24.474c.078.076.151.155.23.229a2.318,2.318,0,0,0,1.559.641,7.243,7.243,0,0,1,.769.007,2.342,2.342,0,0,0,1.014-.207,10.584,10.584,0,0,0,1.326-.611A.4.4,0,0,0,61.1,50.4c-.014-.768-.005-1.537-.005-2.306" transform="translate(19.349 15.519)" fill="#243645"/>
      <path id="Path_4270" data-name="Path 4270" d="M81.3,53.018c-.294.039-.456-.2-.678-.319-.033-.016-.046-.088-.05-.138a2.4,2.4,0,0,1,0-.242c0-1.7-.012-3.4.008-5.1.005-.441-.072-.869-.1-1.3a1.475,1.475,0,0,0-.365-.854,1.794,1.794,0,0,0-.775-.475,4,4,0,0,0-1.513-.166c-.174.181-.423.022-.632.148-.162.1-.411.037-.6.1-.332.112-.67.207-1,.321a.191.191,0,0,0-.127.257,1.609,1.609,0,0,1,.167.746c0,.052.086.123.071.208l-.067.027.067.054c0,1.971-.022,3.943.014,5.914a.875.875,0,0,1-1.08.8,1,1,0,0,1-.43-.319.607.607,0,0,1-.133-.43c.007-2,0-4,.008-5.994a2.058,2.058,0,0,0-.456-1.27,1.391,1.391,0,0,0-.722-.4,2.755,2.755,0,0,0-.946-.169c-.2.005-.407-.01-.609,0a2.709,2.709,0,0,0-.575.083c-.29.087-.587.155-.869.253a1.814,1.814,0,0,1-.378.067.883.883,0,0,1-.075-.249,1.887,1.887,0,0,1,.074-.29.906.906,0,0,0-.008-.191c-.08,0-.133,0-.187,0a.756.756,0,0,1-.67-.249,1.032,1.032,0,0,0-.274-.165c-.2.086-.17.248-.155.387a.509.509,0,0,1-.093.366.866.866,0,0,1-.268.165c-.125-.163-.316-.241-.312-.471,0-.071-.114-.143-.226-.114v-.2a.74.74,0,0,1,.788-.768c.117,0,.233.031.349.037.173.01.246.138.336.253s.2.231.312.358a8.248,8.248,0,0,1,1.447-.57,1.976,1.976,0,0,0,.242-.1,1.191,1.191,0,0,1,.551-.143c.188.01.378,0,.568,0a4.257,4.257,0,0,1,2.058.516,1.939,1.939,0,0,1,.568.4c.169.189.208.182.475.06.068-.031.144-.046.208-.083a5.055,5.055,0,0,1,1.549-.577,4.415,4.415,0,0,1,.543-.157,3.068,3.068,0,0,0,.531-.091,1.966,1.966,0,0,1,.741-.06,5.315,5.315,0,0,1,1.48.342,3.607,3.607,0,0,1,1.209.806,1.92,1.92,0,0,0,.215.157,1.335,1.335,0,0,1,.347.415,2.549,2.549,0,0,1,.261.619c.039.159.074.325.1.489a13.758,13.758,0,0,1,.067,2.156c.014.742,0,1.485,0,2.227v2.27c-.018.251-.152.4-.44.572a1.325,1.325,0,0,1-.453.158l-.082-.082" transform="translate(24.332 15.497)" fill="#233645"/>
      <path id="Path_4271" data-name="Path 4271" d="M92.033,41.069c-.027-.108.046-.165.11-.233a1.1,1.1,0,0,1,1.016-.328.932.932,0,0,1,.291.155c.044.026.084.054.127.082l.082.08a30.941,30.941,0,0,1,.076,3.692c.019,1.255,0,2.51,0,3.766v4.137h5.7a2.833,2.833,0,0,1,.285,0,.836.836,0,0,1,.679,1,.235.235,0,0,1-.075.09.954.954,0,0,1-.651.3q-3.388-.014-6.776,0a1.1,1.1,0,0,1-.622-.166c.023-.128.048-.256.075-.406h-.319v-12c.057-.011.147.038.161-.061.019-.135-.09-.094-.161-.1" transform="translate(33.261 14.635)" fill="#233645"/>
      <path id="Path_4272" data-name="Path 4272" d="M121.372,43.414c.907,0,1.815.018,2.72-.008a.8.8,0,0,1,.768,1,.582.582,0,0,1-.182.285.649.649,0,0,1-.279.1,1.212,1.212,0,0,1-.244,0H121.29V50.63a1.053,1.053,0,0,0,.074.417c.048.112-.029.264.09.368-.034.237.188.3.3.444a.715.715,0,0,0,.389.234,2.166,2.166,0,0,0,1.191,0,4.086,4.086,0,0,1,.915-.242c.24-.233.542-.143.818-.166.064.064.125.118.178.18.067.079.181.163.18.245,0,.192.072.389-.052.583a.829.829,0,0,1-.444.393c-.237.086-.483.138-.717.227a6.43,6.43,0,0,1-.7.17,7.045,7.045,0,0,1-1.675.057,1.028,1.028,0,0,1-.543-.147,1.071,1.071,0,0,0-.286-.1c-.468-.14-.566-.259-.855-.753a2.872,2.872,0,0,1-.406-1.495c.008-2,0-4,0-6v-.256c-.558,0-1.1,0-1.635,0a.459.459,0,0,1-.476-.46c0-.108,0-.215,0-.324a.472.472,0,0,1,.505-.511c.353-.008.7,0,1.056,0h.55V41.631c.05.01.133,0,.146.031a1.982,1.982,0,0,1,.1.324c.06.246.086.5.158.743.035.117.087.214.2.192.172-.033.3.094.455.088s.325,0,.487,0v.406c.01.022.018.045.027.067l.054-.067" transform="translate(42.516 15.047)" fill="#243645"/>
      <path id="Path_4273" data-name="Path 4273" d="M64.1,45.56q0,3.323,0,6.646a.622.622,0,0,1-.173.535,1.2,1.2,0,0,1-.655.287,1.718,1.718,0,0,1-.83-.263c-.067-.025-.1-.166-.127-.26a.709.709,0,0,1,0-.2c0-2.824.005-5.647-.011-8.469a.887.887,0,0,1,.184-.494.559.559,0,0,1,.355-.278,1.151,1.151,0,0,1,.741.06.861.861,0,0,1,.437.508.206.206,0,0,0,.317.11,4.131,4.131,0,0,1,1.331-.609,3.289,3.289,0,0,1,.905-.172,3.216,3.216,0,0,0,.494-.078,1.062,1.062,0,0,1,.534.087.548.548,0,0,1,.308.208c.067.143.237.252.178.456a1.7,1.7,0,0,0-.005.393,1.525,1.525,0,0,0-.184.138.542.542,0,0,1-.455.176,2.988,2.988,0,0,0-.979.1,2.206,2.206,0,0,0-.877.225,4.836,4.836,0,0,0-1.334.407.19.19,0,0,0-.154.2c.005.067,0,.135,0,.2l-.067.027c.022.018.044.037.067.054" transform="translate(22.518 15.496)" fill="#243645"/>
      <path id="Path_4274" data-name="Path 4274" d="M47.665,46.412c0,2.331-.007,4.662.01,6.992a.566.566,0,0,1-.285.527.786.786,0,0,1-.961.049,1.139,1.139,0,0,0-.237-.109c-.106-.046-.128-.132-.161-.241a3.127,3.127,0,0,1-.072-.9c0-.43,0-.862,0-1.293l.08-.061-.08-.1V50.79l.08-.061c-.026-.034-.053-.067-.08-.1v-.162l.08-.061c-.026-.034-.053-.068-.08-.1V49.169l.08-.061c-.026-.034-.053-.068-.08-.1V48.2l.08-.061-.08-.1v-1.54h.226c.034-.364.094-.7.091-1.035a9.772,9.772,0,0,0-.1-.992h-.214V43.007h.23a10.665,10.665,0,0,1,.086-1.559,2.921,2.921,0,0,0,.01-.682.679.679,0,0,1,.4-.63c.1-.052.208-.087.3-.147.029-.019.022-.094.031-.144.061.012.155-.041.162.08,0,.027-.011.063,0,.078a1.084,1.084,0,0,1,.163.76c0,.018.029.037.045.056h.2v3.811a.436.436,0,0,0-.293.075,7.087,7.087,0,0,1-.607.378c-.031.02-.072.06-.071.088.007.192-.067.4.146.545.086.057.142.162.27.129s.177.053.229.124a2,2,0,0,1,.163.294.22.22,0,0,0,.245.15" transform="translate(16.611 14.401)" fill="#223544"/>
      <path id="Path_4275" data-name="Path 4275" d="M101.221,52.244a.509.509,0,0,1-.26.539,1.14,1.14,0,0,1-1.293-.02.847.847,0,0,1-.23-.472.79.79,0,0,1,0-.241q0-3.97,0-7.937a2.578,2.578,0,0,1,.086-.653.646.646,0,0,1,.225-.293c.207-.172.214-.165.369-.165.109,0,.216,0,.325,0a.739.739,0,0,1,.779.779v8.464Z" transform="translate(35.935 15.542)" fill="#243645"/>
      <path id="Path_4276" data-name="Path 4276" d="M115.665,48.026c0-1.391,0-2.781,0-4.173a1.083,1.083,0,0,1,.4-.806c.019-.018.044-.046.063-.044a3.164,3.164,0,0,1,.867.057.472.472,0,0,1,.291.406,1.3,1.3,0,0,1,0,.282q0,3.747,0,7.495a1.107,1.107,0,0,0,.063.5c.061.136-.011.334-.027.5-.005.049-.045.1-.035.146.039.189-.071.3-.193.408a.611.611,0,0,1-.455.177,1.66,1.66,0,0,1-.538-.078.61.61,0,0,1-.442-.619V48.026" transform="translate(41.804 15.542)" fill="#243645"/>
      <path id="Path_4277" data-name="Path 4277" d="M52.536,20.615a1.612,1.612,0,0,1,1.144.365,2.155,2.155,0,0,1,.919,1.233.8.8,0,0,1,.046.222c.005.135-.005.27,0,.4a1.927,1.927,0,0,1-.543,1.352,2.55,2.55,0,0,1-1.262.762.982.982,0,0,1-.589.02,3.215,3.215,0,0,1-.713-.231,3.105,3.105,0,0,1-.621-.447,2.2,2.2,0,0,1-.576-1.051,1.6,1.6,0,0,1-.082-.653,2.217,2.217,0,0,1,.245-.867,2.48,2.48,0,0,1,.656-.713,2.14,2.14,0,0,1,1.374-.4" transform="translate(18.161 7.445)" fill="#1e3549"/>
      <path id="Path_4278" data-name="Path 4278" d="M67.327,43.8c.112-.029.227.044.226.114-.005.23.187.306.31.471a.892.892,0,0,0,.27-.166.5.5,0,0,0,.09-.365c-.012-.14-.046-.3.158-.388a1.1,1.1,0,0,1,.274.166.756.756,0,0,0,.67.249c.052,0,.1,0,.185,0a.811.811,0,0,1,.008.189,2.067,2.067,0,0,0-.072.291.84.84,0,0,0,.075.249v.038c-.349.1-.418.321-.415.668.019,2.088.01,4.177.01,6.265a.563.563,0,0,1-.083,0c-.339-.054-.4-.124-.4-.442,0-.215,0-.432,0-.648,0-.27-.01-.54,0-.81,0-.112.108-.265.063-.321-.118-.155-.061-.312-.063-.463-.011-.783,0-1.567,0-2.35a.9.9,0,0,0,0-.242c-.03-.1-.087-.2-.24-.128a1.044,1.044,0,0,1,0,.2,1.2,1.2,0,0,1-.139.506,1.475,1.475,0,0,0-.255.867,15.477,15.477,0,0,1-.09,1.992c-.023.1-.019.234.1.275.069.022.161-.034.241-.052.011,0,.023.007.067.022-.05.279.132.542.082.836-.007.033.019.072.031.108a1.006,1.006,0,0,1,.057.523,3.163,3.163,0,0,0-.007.727c.005.068.057.184.1.191.185.033.131.161.137.27-.2.24-.463.17-.713.136a2.6,2.6,0,0,1-.278-.109c-.312-.083-.4-.267-.4-.6.016-2.757.011-5.512.011-8.269" transform="translate(24.33 15.711)" fill="#233745"/>
      <path id="Path_4279" data-name="Path 4279" d="M51.28,43.417a3.741,3.741,0,0,1,1.054.855c.02.02,0,.078,0,.118-.208-.033-.173.163-.255.272a.709.709,0,0,0,.5.3c.027.031.074.063.078.1a2.9,2.9,0,0,1,0,.308h-.039c-.011.234-.022.468-.023.7a.633.633,0,0,0,.143.027c.112,0,.08.087.08.146,0,.4,0,.807,0,1.21v4.239H52.58c0,.178-.005.335,0,.49s-.128.264-.162.406a.679.679,0,0,0,0,.158,2.013,2.013,0,0,1-.289.078c-.106.014-.215,0-.321,0-.233.01-.372-.144-.53-.279a.465.465,0,0,1-.163-.418c.01-.227,0-.455,0-.682.112.016.166-.01.165-.146-.005-.9,0-1.809,0-2.713,0-.513.01-1.027,0-1.54a2.08,2.08,0,0,1,.163-1,1.3,1.3,0,0,0,.079-.372.5.5,0,0,1,.151-.429.431.431,0,0,0,.093-.28c.014-.2,0-.4.005-.607a.2.2,0,0,0-.188-.208c-.191-.033-.383-.059-.575-.082-.142-.018-.193-.064-.212-.223a1.392,1.392,0,0,1,0-.17,2.025,2.025,0,0,0,.332-.1c.063-.03.1-.1.155-.158" transform="translate(18.357 15.692)" fill="#223544"/>
      <path id="Path_4280" data-name="Path 4280" d="M52.166,43.612c-.052.053-.093.128-.155.158a2.263,2.263,0,0,1-.332.1c0,.065-.005.118,0,.169.02.161.071.207.212.225.192.023.385.049.576.082a.192.192,0,0,1,.187.208c0,.2.01.406,0,.607a.428.428,0,0,1-.093.279.5.5,0,0,0-.151.43,1.287,1.287,0,0,1-.08.37,2.121,2.121,0,0,0-.163,1c.014.512,0,1.025,0,1.538,0,.905,0,1.811,0,2.715,0,.136-.053.162-.166.146q0-2.545,0-5.09a7.188,7.188,0,0,0-.245-1.152.993.993,0,0,0-.407-.513,2.915,2.915,0,0,0-.971-.393,6.977,6.977,0,0,0-1.062-.068c.056-.193-.082-.294-.2-.4-.056-.049-.154-.063-.188-.118a.224.224,0,0,1,.045-.249c.048-.065.056-.169-.1-.229a1.707,1.707,0,0,0-.338-.059.2.2,0,0,1-.191-.244c.02-.026.044-.078.063-.076A1.273,1.273,0,0,0,49,42.918a.4.4,0,0,1,.147-.034c.362,0,.724-.008,1.088,0a1.906,1.906,0,0,1,.328.076,4.91,4.91,0,0,1,1.449.49.741.741,0,0,1,.152.159m-2.855.3a.557.557,0,0,0,.475-.075c.173-.069.308-.218.511-.227.029,0,.074-.061.078-.1a.175.175,0,0,0-.169-.218c-.093-.01-.188,0-.28,0a.678.678,0,0,0-.523.2c-.142.125-.046.276-.091.423" transform="translate(17.473 15.498)" fill="#233645"/>
      <path id="Path_4281" data-name="Path 4281" d="M99.313,40.976a1.4,1.4,0,0,1,1.169-.536,2.081,2.081,0,0,1,.8.3.963.963,0,0,1,.267.988c-.082.248-.136.355-.214.408a1.932,1.932,0,0,1-.92.417,1.054,1.054,0,0,1-.968-.5.823.823,0,0,1-.131-.425c-.02-.226-.005-.455-.005-.662" transform="translate(35.893 14.616)" fill="#233745"/>
      <path id="Path_4282" data-name="Path 4282" d="M116.579,42.55a.917.917,0,0,0-.162,0,.566.566,0,0,1-.545-.234,1.291,1.291,0,0,1-.332-.633,1.252,1.252,0,0,1,0-.546.656.656,0,0,1,.177-.335,1.458,1.458,0,0,1,.534-.28c.195-.075.388-.157.583,0,.565-.049.663.41.822.779a.369.369,0,0,1-.068.41.444.444,0,0,0-.083.166c-.208.57-.349.673-.928.673" transform="translate(41.749 14.614)" fill="#243645"/>
      <path id="Path_4283" data-name="Path 4283" d="M120.73,43.346c-.162,0-.325,0-.487,0s-.283-.121-.455-.088c-.113.02-.166-.076-.2-.192-.072-.245-.1-.5-.158-.745a1.936,1.936,0,0,0-.1-.324c-.011-.026-.094-.02-.144-.03,0-.215-.007-.43,0-.644a.726.726,0,0,1,.914-.6.78.78,0,0,1,.538.362.626.626,0,0,1,.091.327v1.932" transform="translate(43.076 14.71)" fill="#223544"/>
      <path id="Path_4284" data-name="Path 4284" d="M68.556,51.928c-.005-.108.048-.237-.138-.268-.045-.008-.1-.124-.1-.192a3.018,3.018,0,0,1,.005-.727,1.023,1.023,0,0,0-.059-.523c-.011-.035-.037-.074-.031-.108.05-.294-.132-.557-.082-.836a.348.348,0,0,0-.065-.022c-.082.019-.173.074-.24.052-.121-.039-.125-.17-.1-.274a15.013,15.013,0,0,0,.09-1.993,1.473,1.473,0,0,1,.256-.867,1.215,1.215,0,0,0,.138-.505.954.954,0,0,0,0-.2c.152-.069.21.029.24.129a.889.889,0,0,1,0,.241c0,.784,0,1.567,0,2.351,0,.15-.056.308.064.462.044.056-.06.211-.064.321-.011.27,0,.54,0,.81v.649c0,.317.067.388.407.441a.526.526,0,0,0,.08,0v.648l-.08.082a.341.341,0,0,1-.325.324" transform="translate(24.481 16.425)" fill="#233645"/>
      <path id="Path_4285" data-name="Path 4285" d="M47.493,45.141a.22.22,0,0,1-.245-.15,2,2,0,0,0-.163-.294c-.052-.071-.114-.152-.229-.124s-.184-.072-.27-.129c-.212-.142-.139-.353-.146-.545,0-.029.039-.068.071-.088a7.086,7.086,0,0,0,.607-.378.436.436,0,0,1,.293-.075l.082.08.406-.08c-.039.245.154.419.207.639.033.138.17.148.369.091a.691.691,0,0,0,.146-.034c.23-.129.413.02.6.1.037.018.039.113.059.172a1.106,1.106,0,0,0-.328.074c-.332.067-.637.222-.979.26a1.234,1.234,0,0,0-.4.193c-.118.065-.078.182-.083.285" transform="translate(16.783 15.671)" fill="#233645"/>
      <path id="Path_4286" data-name="Path 4286" d="M48.893,44.439c-.019-.059-.02-.154-.059-.172-.189-.084-.373-.236-.6-.1a.691.691,0,0,1-.146.034c-.2.057-.336.046-.369-.091-.053-.221-.246-.393-.207-.64v-.037l.406-.125c.011.057-.038.147.061.161.136.018.094-.091.1-.162a.766.766,0,0,0,0-.079,1.344,1.344,0,0,1,.569-.162.2.2,0,0,0,.191.242,1.619,1.619,0,0,1,.338.06c.159.059.151.162.1.227a.223.223,0,0,0-.044.249c.033.056.131.071.187.118.118.1.256.206.2.4a2.876,2.876,0,0,0-.731.082" transform="translate(17.17 15.563)" fill="#223544"/>
      <path id="Path_4287" data-name="Path 4287" d="M47.016,39.867c-.01.05,0,.125-.031.144-.093.06-.2.1-.3.147a.681.681,0,0,0-.4.63,2.919,2.919,0,0,1-.01.682,10.859,10.859,0,0,0-.086,1.559h-.23c0-.662.015-1.322-.007-1.982-.008-.244.083-.46.1-.694a.481.481,0,0,1,.14-.263.792.792,0,0,1,.8-.29c.014,0,.019.044.029.067" transform="translate(16.609 14.377)" fill="#233645"/>
      <path id="Path_4288" data-name="Path 4288" d="M45.958,43.239h.215a9.756,9.756,0,0,1,.1.994,10.119,10.119,0,0,1-.091,1.033h-.226Z" transform="translate(16.611 15.628)" fill="#233645"/>
      <path id="Path_4289" data-name="Path 4289" d="M51.987,50.546a.764.764,0,0,1,0-.158c.034-.142.169-.244.162-.406s0-.312,0-.49h.244a3.161,3.161,0,0,0,0,.321.675.675,0,0,1-.255.618c-.049.041-.1.076-.154.114" transform="translate(18.788 17.888)" fill="#233645"/>
      <path id="Path_4290" data-name="Path 4290" d="M47.261,40.8h-.2c-.015-.019-.045-.037-.045-.056a1.073,1.073,0,0,0-.162-.758c-.014-.016,0-.052,0-.078a.491.491,0,0,1,.4.448c.01.147,0,.3,0,.444" transform="translate(16.933 14.423)" fill="#233645"/>
      <path id="Path_4291" data-name="Path 4291" d="M52.237,44.7a.7.7,0,0,1-.5-.3c.082-.108.046-.3.255-.272a.76.76,0,0,1,.244.568" transform="translate(18.7 15.95)" fill="#233645"/>
      <path id="Path_4292" data-name="Path 4292" d="M52.263,45.577a.816.816,0,0,1-.143-.027c0-.234.012-.468.023-.7h.038c.027.033.076.065.078.1.008.21,0,.419,0,.629" transform="translate(18.838 16.209)" fill="#233645"/>
      <path id="Path_4293" data-name="Path 4293" d="M92.032,49.849h.319c-.027.148-.052.278-.075.406a.358.358,0,0,1-.244-.406" transform="translate(33.261 18.017)" fill="#243645"/>
      <path id="Path_4294" data-name="Path 4294" d="M26.373,7.449l-.406.082c-.038-.184.146-.244.233-.309.071-.052.191.086.173.227" transform="translate(9.383 2.606)" fill="#f6947e"/>
      <path id="Path_4295" data-name="Path 4295" d="M29.692,24.508c-.023-.01-.061-.014-.067-.029-.067-.211-.065-.211-.259-.215.067-.172.2-.044.325-.082Z" transform="translate(10.614 8.737)" fill="#f6947e"/>
      <path id="Path_4296" data-name="Path 4296" d="M47.972,43.179c0,.027,0,.053,0,.08-.007.071.035.178-.1.161-.1-.014-.05-.1-.061-.159.007-.123.1-.069.162-.082" transform="translate(17.279 15.606)" fill="#233645"/>
      <path id="Path_4297" data-name="Path 4297" d="M53.5,25.475c-.121-.007-.069-.1-.082-.162.059.011.146-.037.158.061,0,.03-.049.067-.076.1" transform="translate(19.307 9.148)" fill="#d0d3d7"/>
      <path id="Path_4298" data-name="Path 4298" d="M92.031,40.916c.071.007.18-.034.161.1-.014.1-.1.05-.161.061Z" transform="translate(33.263 14.788)" fill="#243645"/>
      <path id="Path_4299" data-name="Path 4299" d="M67.768,25.075c-.031.027-.061.072-.1.078a1.421,1.421,0,0,1-.229,0c.033-.027.061-.072.1-.078a1.424,1.424,0,0,1,.229,0" transform="translate(24.376 9.062)" fill="#7b858f"/>
      <path id="Path_4300" data-name="Path 4300" d="M85.211,43.537c-.011.057.037.144-.061.158-.03,0-.067-.05-.1-.076.007-.123.1-.069.162-.082" transform="translate(30.739 15.735)" fill="#97a1aa"/>
      <path id="Path_4301" data-name="Path 4301" d="M137.252,43.537c-.007.071.034.178-.1.159-.1-.014-.05-.1-.061-.159Z" transform="translate(49.547 15.736)" fill="#6a757e"/>
      <path id="Path_4302" data-name="Path 4302" d="M45.98,45.859l.082.1-.082.061-.082-.1.082-.061" transform="translate(16.589 16.575)" fill="#6f7981"/>
      <path id="Path_4303" data-name="Path 4303" d="M45.98,46.574l.082.1-.082.061-.082-.1.082-.061" transform="translate(16.589 16.833)" fill="#6f7981"/>
      <path id="Path_4304" data-name="Path 4304" d="M45.98,47.527l.082.1-.082.061-.082-.1.082-.061" transform="translate(16.589 17.178)" fill="#6f7981"/>
      <path id="Path_4305" data-name="Path 4305" d="M45.98,47.765l.082.1-.082.061-.082-.1.082-.061" transform="translate(16.589 17.264)" fill="#6f7981"/>
      <path id="Path_4306" data-name="Path 4306" d="M45.98,48.241l.082.1-.082.061-.082-.1.082-.061" transform="translate(16.589 17.436)" fill="#6f7981"/>
      <path id="Path_4307" data-name="Path 4307" d="M2.691,30.017h.244c-.082.112-.162.112-.244,0" transform="translate(0.973 10.849)" fill="#f5a491"/>
      <path id="Path_4308" data-name="Path 4308" d="M81.473,25.076c-.038.157-.163.05-.244.082.038-.157.163-.05.244-.082" transform="translate(29.358 9.061)" fill="#87929b"/>
      <path id="Path_4309" data-name="Path 4309" d="M2.534,25.653l-.082-.1.082-.061v.162" transform="translate(0.886 9.213)" fill="#f6947e"/>
      <path id="Path_4310" data-name="Path 4310" d="M25.689,29.541c-.012.061.041.155-.082.162.012-.061-.039-.155.082-.162" transform="translate(9.255 10.677)" fill="#f5a491"/>
      <path id="Path_4311" data-name="Path 4311" d="M98.161,25.074c-.007.121-.1.069-.162.082.007-.123.1-.069.162-.082" transform="translate(35.42 9.062)" fill="#919aa3"/>
      <path id="Path_4312" data-name="Path 4312" d="M112.919,50.326c.061.012.155-.041.162.082-.061-.012-.155.039-.162-.082" transform="translate(40.812 18.189)" fill="#6f7981"/>
      <path id="Path_4313" data-name="Path 4313" d="M20.975,34.841l-.082.082.082-.082" transform="translate(7.551 12.593)" fill="#f5a491"/>
      <path id="Path_4314" data-name="Path 4314" d="M137.745,50.326h.082c-.019.022-.037.045-.054.067-.01-.022-.018-.045-.027-.067" transform="translate(49.785 18.189)" fill="#97a1aa"/>
      <path id="Path_4315" data-name="Path 4315" d="M97.283,36.807l.082.082-.082-.082" transform="translate(35.161 13.303)" fill="#606b75"/>
      <path id="Path_4316" data-name="Path 4316" d="M14.985,6.157l.082-.082-.082.082" transform="translate(5.416 2.196)" fill="#f5a491"/>
      <path id="Path_4317" data-name="Path 4317" d="M63.922,32.4c.023.018.045.037.067.054l-.067.027Z" transform="translate(23.103 11.71)" fill="#87929b"/>
      <path id="Path_4318" data-name="Path 4318" d="M93.247,40.759l-.082-.082.082.082" transform="translate(33.672 14.702)" fill="#243645"/>
      <path id="Path_4319" data-name="Path 4319" d="M11.128,30.158l-.083-.082.083.082" transform="translate(3.992 10.87)" fill="#f5a491"/>
      <path id="Path_4320" data-name="Path 4320" d="M120.319,42.844v-.082c.022.019.045.037.067.054l-.067.027" transform="translate(43.487 15.456)" fill="#d0d3d7"/>
      <path id="Path_4321" data-name="Path 4321" d="M3.168,29.8v-.082c.022.019.045.037.067.054l-.067.027" transform="translate(1.145 10.741)" fill="#f5a491"/>
      <path id="Path_4322" data-name="Path 4322" d="M68.718,29.362l-.082.082.082-.082" transform="translate(24.807 10.612)" fill="#97a1aa"/>
      <path id="Path_4323" data-name="Path 4323" d="M70.628,29.243l-.082.082.082-.082" transform="translate(25.497 10.569)" fill="#919aa3"/>
      <path id="Path_4324" data-name="Path 4324" d="M8.48,29.124l.067.054-.067.027Z" transform="translate(3.065 10.526)" fill="#f5a491"/>
      <path id="Path_4325" data-name="Path 4325" d="M120.4,42.941l-.054.067c-.01-.022-.018-.045-.027-.067Z" transform="translate(43.487 15.52)" fill="#606b75"/>
      <path id="Path_4326" data-name="Path 4326" d="M2.832,27.955l-.082-.082.082.082" transform="translate(0.994 10.074)" fill="#f5a491"/>
      <path id="Path_4327" data-name="Path 4327" d="M8.5,27.516,8.42,27.6l.082-.082" transform="translate(3.043 9.945)" fill="#f6947e"/>
      <path id="Path_4328" data-name="Path 4328" d="M67.264,27.538l.082-.082-.082.082" transform="translate(24.311 9.924)" fill="#919aa3"/>
      <path id="Path_4329" data-name="Path 4329" d="M11.225,27.181l.082-.082-.082.082" transform="translate(4.057 9.794)" fill="#f5a491"/>
      <path id="Path_4330" data-name="Path 4330" d="M78.088,25.394l-.082-.082.082.082" transform="translate(28.194 9.149)" fill="#919aa3"/>
      <path id="Path_4331" data-name="Path 4331" d="M76.059,25.312l-.082.082.082-.082" transform="translate(27.46 9.149)" fill="#919aa3"/>
      <path id="Path_4332" data-name="Path 4332" d="M88.054,25.074l-.082.082.082-.082" transform="translate(31.796 9.063)" fill="#87929b"/>
      <path id="Path_4333" data-name="Path 4333" d="M47.234,43.439l-.082-.082.082.082" transform="translate(17.042 15.671)" fill="#b1b5bc"/>
      <path id="Path_4334" data-name="Path 4334" d="M6.868,25.1v-.082l.067.054-.067.027" transform="translate(2.482 9.041)" fill="#f5a491"/>
      <path id="Path_4335" data-name="Path 4335" d="M25.608,23.883h.082c-.019.022-.037.045-.054.067-.01-.022-.018-.045-.027-.067" transform="translate(9.255 8.632)" fill="#f6947e"/>
      <path id="Path_4336" data-name="Path 4336" d="M25.309,23.964l.082-.082-.082.082" transform="translate(9.147 8.632)" fill="#f6947e"/>
      <path id="Path_4337" data-name="Path 4337" d="M24.653,23.883l.082.082-.082-.082" transform="translate(8.91 8.632)" fill="#f6947e"/>
      <path id="Path_4338" data-name="Path 4338" d="M25.846,23.9l.082-.082-.082.082" transform="translate(9.341 8.61)" fill="#f5a491"/>
      <path id="Path_4339" data-name="Path 4339" d="M26.4,20.868l-.082-.082.082.082" transform="translate(9.514 7.513)" fill="#f5a491"/>
      <path id="Path_4340" data-name="Path 4340" d="M2.452,20.868l.082-.082-.082.082" transform="translate(0.886 7.513)" fill="#f5a491"/>
      <path id="Path_4341" data-name="Path 4341" d="M103.985,44.571c-.023-.018-.045-.037-.067-.054l.067-.027Z" transform="translate(37.559 16.08)" fill="#43515d"/>
      <path id="Path_4342" data-name="Path 4342" d="M63.641,44.869c-.023-.018-.045-.037-.067-.054l.067-.027Z" transform="translate(22.977 16.187)" fill="#4f5a68"/>
      <path id="Path_4343" data-name="Path 4343" d="M26.167,20.8h-.082c.019-.022.037-.045.054-.067.01.022.018.045.027.067" transform="translate(9.428 7.495)" fill="#f6947e"/>
      <path id="Path_4344" data-name="Path 4344" d="M73.488,45.4l-.067-.054c.023-.008.045-.018.067-.027Z" transform="translate(26.536 16.381)" fill="#58646d"/>
      <path id="Path_4345" data-name="Path 4345" d="M20.855,20.726l-.082.082.082-.082" transform="translate(7.508 7.491)" fill="#f5a491"/>
      <path id="Path_4346" data-name="Path 4346" d="M21.333,20.667l-.082.082.082-.082" transform="translate(7.681 7.47)" fill="#f5a491"/>
      <path id="Path_4347" data-name="Path 4347" d="M24.913,20.607l-.054.067c-.01-.022-.018-.045-.027-.067Z" transform="translate(8.975 7.448)" fill="#f6947e"/>
      <path id="Path_4348" data-name="Path 4348" d="M125.153,47.072l.082-.082-.082.082" transform="translate(45.234 16.984)" fill="#aab1b7"/>
      <path id="Path_4349" data-name="Path 4349" d="M2.53,20.57l-.067-.054.067-.027v.082" transform="translate(0.89 7.405)" fill="#f5a491"/>
      <path id="Path_4350" data-name="Path 4350" d="M16.495,48.182v.082l-.067-.054.067-.027" transform="translate(5.938 17.414)" fill="#f9cabc"/>
      <path id="Path_4351" data-name="Path 4351" d="M2.512,19.736l.082-.082-.082.082" transform="translate(0.908 7.104)" fill="#f5a491"/>
      <path id="Path_4352" data-name="Path 4352" d="M2.75,16.639l.082-.082-.082.082" transform="translate(0.994 5.984)" fill="#f5a491"/>
      <path id="Path_4353" data-name="Path 4353" d="M100.744,49.812V49.73l.067.054-.067.027" transform="translate(36.412 17.974)" fill="#d0d3d7"/>
      <path id="Path_4354" data-name="Path 4354" d="M60.4,49.871v-.082l.067.054-.067.027" transform="translate(21.831 17.995)" fill="#ced0d2"/>
      <path id="Path_4355" data-name="Path 4355" d="M78.305,49.871v-.082c.022.019.045.037.067.054l-.067.027" transform="translate(28.302 17.995)" fill="#ced0d2"/>
      <path id="Path_4356" data-name="Path 4356" d="M2.653,13.125l-.082-.082.082.082" transform="translate(0.929 4.714)" fill="#f5a491"/>
      <path id="Path_4357" data-name="Path 4357" d="M68.577,49.991l.082-.082-.082.082" transform="translate(24.786 18.039)" fill="#4f5a68"/>
      <path id="Path_4358" data-name="Path 4358" d="M77.588,50.326l.082.082-.082-.082" transform="translate(28.042 18.189)" fill="#7b858f"/>
      <path id="Path_4359" data-name="Path 4359" d="M83.318,50.407l.082-.082-.082.082" transform="translate(30.113 18.189)" fill="#87929b"/>
      <path id="Path_4360" data-name="Path 4360" d="M82.781,36.568l.08.082-.08-.082" transform="translate(29.919 13.217)" fill="#7b858f"/>
      <path id="Path_4361" data-name="Path 4361" d="M135.358,50.4l.054-.067c.01.022.018.045.027.067h-.082" transform="translate(48.922 18.193)" fill="#97a1aa"/>
      <path id="Path_4362" data-name="Path 4362" d="M13.515,39.806l-.082-.082.082.082" transform="translate(4.855 14.358)" fill="#f5a491"/>
      <path id="Path_4364" data-name="Path 4364" d="M41.065,28.469h.082c-.019.022-.037.045-.054.067-.01-.022-.018-.045-.027-.067" transform="translate(14.842 10.29)" fill="#64717d"/>
      <path id="Path_4366" data-name="Path 4366" d="M101.1,31.171v-.082l.067.054-.067.027" transform="translate(36.541 11.237)" fill="#6f7981"/>
      <path id="Path_4367" data-name="Path 4367" d="M100.468,31.089l-.054.067c-.01-.022-.018-.045-.027-.067h.082" transform="translate(36.282 11.237)" fill="#97a1aa"/>
      <path id="Path_4369" data-name="Path 4369" d="M70.546,31.171v-.082c.022.019.045.037.067.054l-.067.027" transform="translate(25.497 11.237)" fill="#6f7981"/>
      <path id="Path_4375" data-name="Path 4375" d="M49.054,43.8c.045-.147-.05-.3.091-.423a.678.678,0,0,1,.523-.2c.093.007.188-.007.28,0a.175.175,0,0,1,.169.218c0,.038-.049.1-.078.1-.2.01-.338.158-.511.227a.557.557,0,0,1-.475.075" transform="translate(17.73 15.606)" fill="#223544"/>
    </g>
  </g>
</svg>
